<svg width="32" height="29" viewBox="0 0 32 29" fill="none" xmlns="http://www.w3.org/2000/svg">
<g id="Pala botton ">
<g id="pala cruzada 1">
<path id="Vector" d="M12.5477 14.7062C12.5907 14.8619 12.6232 15.0198 12.6453 15.1798C12.6671 15.3394 12.6783 15.5003 12.6788 15.6616C12.6792 15.823 12.6688 15.9839 12.648 16.1439C12.6267 16.3039 12.5954 16.4618 12.5533 16.6175C12.5112 16.7731 12.4587 16.9258 12.3966 17.0745C12.3341 17.2232 12.262 17.3672 12.1804 17.5063C12.0988 17.6455 12.0081 17.7785 11.9087 17.9055C11.8093 18.0325 11.702 18.1521 11.5866 18.2647C11.4689 18.3778 11.3443 18.483 11.2128 18.5796C11.0817 18.6765 10.9445 18.7644 10.8013 18.8431C10.6585 18.9218 10.5109 18.9905 10.3589 19.0501C10.207 19.1092 10.0516 19.1584 9.89359 19.1971C9.73514 19.2358 9.57452 19.264 9.4126 19.2814C9.25025 19.2993 9.0879 19.3062 8.92467 19.3023C8.76189 19.2984 8.59953 19.284 8.43848 19.2588C8.27743 19.2336 8.11855 19.1979 7.96228 19.1518C7.59416 19.0453 7.23386 18.9166 6.8818 18.7644C6.52974 18.6126 6.18898 18.4387 5.85863 18.2434C5.52871 18.0482 5.21225 17.8329 4.90925 17.5976C4.60625 17.3624 4.31931 17.1089 4.04843 16.8371C3.77755 16.5653 3.52447 16.2774 3.29006 15.9739C3.05521 15.6699 2.84076 15.3524 2.64585 15.0215C2.45137 14.6906 2.27817 14.3483 2.12667 13.9952C1.97517 13.6426 1.84624 13.2812 1.74032 12.912C1.6943 12.755 1.65827 12.5958 1.6331 12.4341C1.60792 12.2723 1.59316 12.1097 1.58925 11.9462C1.58578 11.7826 1.59229 11.6196 1.61009 11.4569C1.62745 11.2939 1.65567 11.1334 1.6943 10.9742C1.73294 10.8151 1.78199 10.6594 1.84103 10.5072C1.90007 10.3546 1.96909 10.2067 2.04766 10.0632C2.12623 9.91969 2.21392 9.78227 2.31029 9.65007C2.4071 9.51831 2.51215 9.3935 2.62501 9.27565C2.73701 9.15998 2.85639 9.05213 2.98315 8.95255C3.10947 8.85297 3.2423 8.76208 3.38078 8.68033C3.51969 8.59857 3.66295 8.52638 3.81141 8.46376C3.95944 8.40114 4.11137 8.34896 4.26678 8.30678C4.42175 8.2646 4.57933 8.23285 4.73908 8.21198C4.8984 8.1911 5.05858 8.18067 5.21963 8.1811C5.38025 8.18197 5.54043 8.19328 5.69975 8.21502C5.85906 8.2372 6.0162 8.26981 6.17161 8.31287C6.55145 8.4168 6.92261 8.54465 7.28595 8.69685C7.64929 8.84949 8.00134 9.0243 8.34168 9.2226C8.68245 9.42046 9.00846 9.64007 9.32057 9.88055C9.63269 10.1215 9.92788 10.3811 10.2066 10.6603C10.4848 10.9394 10.744 11.2356 10.984 11.5483C11.2241 11.8614 11.4429 12.1888 11.6404 12.5302C11.8379 12.8715 12.0129 13.2242 12.1648 13.5886C12.3167 13.9531 12.4444 14.3257 12.5477 14.7062ZM14.0601 20.7021C14.0184 20.7443 13.9715 20.7791 13.919 20.8065C13.8665 20.8339 13.8113 20.853 13.7532 20.8635C13.695 20.8739 13.6364 20.8752 13.5778 20.8678C13.5192 20.86 13.4632 20.8439 13.4094 20.8187C12.5286 20.4047 11.6135 20.0916 10.6637 19.8794C10.6298 19.8715 10.6112 19.8502 10.6081 19.8155C10.6051 19.7807 10.6194 19.7567 10.6515 19.7428C11.2089 19.5176 11.6994 19.1914 12.124 18.7648C12.5494 18.3395 12.8741 17.8473 13.099 17.2885C13.1124 17.2563 13.1367 17.2419 13.1715 17.245C13.2062 17.248 13.2275 17.2667 13.2353 17.3006C13.448 18.2534 13.7619 19.171 14.1764 20.0546C14.2012 20.1081 14.2177 20.1646 14.225 20.2234C14.2329 20.2821 14.2311 20.3408 14.2207 20.399C14.2103 20.4573 14.1916 20.513 14.1643 20.5652C14.1365 20.6178 14.1022 20.6652 14.0601 20.7069V20.7021ZM6.36262 7.60839C6.18203 7.55794 5.99841 7.51967 5.81261 7.49358C5.62682 7.46706 5.44015 7.4527 5.25219 7.45097C5.06466 7.44879 4.87756 7.45923 4.69133 7.48141C4.5051 7.50402 4.32061 7.53837 4.13872 7.5849C3.95683 7.63143 3.77885 7.68971 3.60478 7.75928C3.43027 7.8293 3.2614 7.91018 3.09731 8.00194C2.93366 8.09369 2.77651 8.19589 2.62588 8.30852C2.47525 8.42115 2.33286 8.54291 2.19786 8.6738C2.05287 8.81774 1.91786 8.97081 1.79328 9.13302C1.66913 9.29522 1.55626 9.46525 1.45511 9.64311C1.35397 9.82097 1.26498 10.0049 1.18901 10.1945C1.11261 10.3846 1.04966 10.5789 1.00018 10.7772C0.950256 10.976 0.914225 11.1769 0.892086 11.3804C0.869947 11.5839 0.861265 11.7879 0.866908 11.9927C0.872552 12.1975 0.891652 12.4006 0.925078 12.6028C0.95807 12.8046 1.00495 13.0033 1.06529 13.199C1.1838 13.5991 1.32705 13.99 1.49462 14.3714C1.66261 14.7532 1.85405 15.1228 2.06893 15.4799C2.28381 15.8373 2.51996 16.1796 2.77825 16.5066C3.03654 16.8336 3.31436 17.1428 3.61172 17.4346C3.90952 17.7264 4.22424 17.9977 4.55589 18.2491C4.88798 18.5009 5.23439 18.73 5.59513 18.9375C5.9563 19.1445 6.32919 19.328 6.71337 19.4876C7.09755 19.6476 7.49041 19.782 7.89195 19.8916C8.08947 19.945 8.29002 19.985 8.49318 20.0116H8.53789C8.64034 20.0238 8.74279 20.0316 8.84393 20.0359C9.72342 20.1107 10.586 20.2747 11.432 20.5278C12.2781 20.7808 13.089 21.1179 13.8656 21.5388L20.9601 28.6536C20.994 28.6875 21.0309 28.718 21.0704 28.7445C21.1103 28.771 21.1524 28.7937 21.1967 28.8119C21.241 28.8302 21.2865 28.8441 21.3334 28.8537C21.3803 28.8628 21.4281 28.8676 21.4758 28.8676C21.5236 28.8676 21.5709 28.8628 21.6182 28.8537C21.6651 28.8441 21.7107 28.8302 21.7549 28.8119C21.7992 28.7937 21.8413 28.771 21.8808 28.7445C21.9208 28.718 21.9577 28.6875 21.9915 28.6536C22.0254 28.6197 22.0558 28.5827 22.0822 28.5427C22.1087 28.5032 22.1313 28.461 22.1495 28.4166C22.1678 28.3723 22.1817 28.3266 22.1908 28.2796C22.2003 28.2327 22.2047 28.1848 22.2047 28.137C22.2047 28.0892 22.2003 28.0418 22.1908 27.9944C22.1817 27.9474 22.1678 27.9017 22.1495 27.8574C22.1313 27.813 22.1087 27.7713 22.0822 27.7313C22.0558 27.6913 22.0254 27.6543 21.9915 27.6204L14.8975 20.5086C14.4777 19.7298 14.1417 18.9166 13.889 18.0682C13.6368 17.2197 13.4732 16.3544 13.3989 15.4725C13.3989 15.3694 13.3868 15.2668 13.3742 15.1655C13.3738 15.1546 13.3738 15.1437 13.3742 15.1333C13.3486 14.9258 13.3091 14.721 13.2548 14.5192C13.1433 14.1074 13.0052 13.7052 12.8416 13.3116C12.6775 12.9181 12.4886 12.5367 12.2755 12.1675C12.0619 11.7987 11.8258 11.4452 11.5666 11.1069C11.307 10.769 11.027 10.4489 10.7266 10.1476C10.4258 9.84576 10.1067 9.56484 9.76943 9.30479C9.43257 9.04518 9.08008 8.80818 8.71197 8.59379C8.34428 8.37983 7.96401 8.19067 7.57159 8.02629C7.17916 7.86191 6.77762 7.72362 6.36739 7.61143L6.36262 7.60839Z" fill="black"/>
<path id="Vector_2" d="M9.71934 11.1994L8.54987 12.3705L7.38344 11.2008L8.55117 10.0297L9.71934 11.1994ZM11.0399 12.5253L9.87214 13.6969L8.70441 12.5253L9.87388 11.3543L11.0399 12.5253ZM5.75166 9.87442L4.58393 11.0442L3.4175 9.87442L4.58393 8.70333L5.75166 9.87442ZM7.07436 11.2008L5.90663 12.3705L4.73847 11.1994L5.90663 10.0297L7.07436 11.2008ZM8.39663 12.5253L7.2289 13.6969L6.06117 12.5253L7.2289 11.356L8.39663 12.5253ZM9.71152 13.8517L8.54379 15.0215L7.37736 13.8517L8.54379 12.6806L9.71152 13.8517ZM11.0338 15.178L9.87388 16.3491L8.70441 15.1767L9.87214 14.0069L11.0399 15.178H11.0338ZM4.42939 11.1994L3.26296 12.3705L2.09523 11.1994L3.26296 10.0297L4.42939 11.1994ZM5.75166 12.5253L4.58567 13.6969L3.4175 12.5253L4.58393 11.3543L5.75166 12.5253ZM7.07436 13.8517L5.90663 15.0215L4.74021 13.8517L5.90663 12.6806L7.07436 13.8517ZM8.39663 15.1767L7.2289 16.3491L6.06117 15.178L7.2289 14.0082L8.39663 15.178V15.1767ZM9.71934 16.5026L8.55117 17.6724L7.38344 16.5026L8.54987 15.3315L9.71934 16.5026ZM5.75166 15.1767L4.58393 16.3491L3.4175 15.178L4.58567 14.0069L5.75166 15.1767ZM7.07436 16.5026L5.90663 17.6741L4.73847 16.5026L5.90663 15.3302L7.07436 16.5026ZM9.87388 11.0442L8.74565 9.91312L8.54987 9.78092L8.35235 9.65524C8.28507 9.61219 8.21605 9.57393 8.14876 9.53392C8.08148 9.49391 8.01245 9.45564 7.94213 9.41868L8.40141 9.8792L7.23368 11.0503L6.06551 9.8792L6.97322 8.96903C6.89812 8.93685 6.82041 8.90902 6.74835 8.88293L5.91097 9.72395L4.77363 8.58374L4.679 8.59592L4.58567 8.61418C4.54573 8.6207 4.50666 8.6294 4.46759 8.64027L4.38338 8.66202C4.35646 8.6681 4.32998 8.67593 4.30394 8.68506L3.26774 9.72395L2.97689 9.44173C2.94954 9.46608 2.9248 9.49217 2.89875 9.51826L2.87878 9.53696L2.82365 9.59523L3.10538 9.87746L2.08916 10.8955C2.07223 10.9568 2.0553 11.0181 2.0401 11.0825C2.0401 11.1073 2.02968 11.1316 2.02491 11.1547C2.00668 11.236 1.99279 11.319 1.98193 11.4021L3.10538 12.5288L2.26497 13.3699L2.35222 13.5864L3.26296 12.6745L4.43113 13.8456L3.26296 15.0167L2.80412 14.5562C2.82843 14.604 2.85578 14.6514 2.88356 14.6975C2.91091 14.7436 2.9465 14.8145 2.98167 14.8697C3.01683 14.9249 3.04722 14.9802 3.08238 15.0336C3.11754 15.0876 3.15314 15.1476 3.1896 15.2028C3.2265 15.258 3.26166 15.3102 3.29986 15.3637L4.42939 16.5026L4.32998 16.6026C4.38207 16.6548 4.43417 16.7053 4.48278 16.7561L4.58393 16.6561L5.50249 17.5772L5.62924 17.6633C5.63966 17.6724 5.65095 17.6802 5.6631 17.6863C5.71823 17.7246 5.77467 17.7598 5.8298 17.7955L5.99389 17.895L6.0946 17.9533C6.16188 17.9933 6.23091 18.0316 6.29993 18.0699L6.05032 17.8181L7.2289 16.6561L8.39663 17.8276L7.58096 18.6517C7.6591 18.6795 7.73376 18.7056 7.81364 18.73L8.55117 17.9885L9.46973 18.9096C9.55785 18.8987 9.6451 18.8835 9.73149 18.8635L8.70441 17.8337L9.87388 16.6561L11.0399 17.8259L10.1217 18.7469H10.1369C10.1843 18.7317 10.229 18.7148 10.2745 18.6965H10.2884L10.3744 18.6595L10.4399 18.6304C10.4829 18.6117 10.5242 18.5887 10.5671 18.5673H10.581L10.6848 18.5091L11.1961 17.9964L11.2743 18.0746L11.3325 18.0177L11.3524 17.9977L11.4288 17.9194L11.3507 17.8411L11.879 17.3119C11.9016 17.2749 11.9215 17.238 11.9402 17.201L11.9797 17.1245C11.9953 17.0953 12.0088 17.0632 12.0244 17.031C12.0396 16.9988 12.0656 16.9357 12.0839 16.8866C12.1025 16.844 12.119 16.8005 12.1329 16.7561C12.1329 16.7509 12.1329 16.7457 12.1329 16.7409L11.1901 17.6863L10.0284 16.5026L11.1948 15.3315L12.2354 16.3752C12.2445 16.3308 12.2553 16.2878 12.2614 16.2434C12.2705 16.1995 12.2771 16.1556 12.2814 16.1112L11.3494 15.178L12.0869 14.4383C12.0639 14.3631 12.0396 14.2848 12.0136 14.2157C12.0136 14.2157 12.0136 14.2157 12.0136 14.2065L11.1979 15.0232L10.0297 13.8517L11.1979 12.6806L11.4488 12.9306L11.4397 12.9141C11.4149 12.8663 11.3889 12.8189 11.3615 12.7728L11.3325 12.7249L11.3047 12.6728L11.2131 12.5193L11.0889 12.3231L10.9557 12.1266L10.0375 11.2055L10.1339 11.1086C10.0848 11.0551 10.0345 11.0029 9.98066 10.9551L9.88125 11.0551L9.87388 11.0442Z" fill="black"/>
<path id="Vector_3" d="M22.4359 10.661C22.995 10.1 23.6166 9.62082 24.3003 9.22292C24.9845 8.82545 25.7077 8.52235 26.4704 8.31362C26.6254 8.27056 26.7829 8.23795 26.9423 8.21577C27.1016 8.19403 27.2618 8.18272 27.4224 8.18185C27.5834 8.18142 27.7436 8.19185 27.9029 8.21273C28.0627 8.2336 28.2198 8.26535 28.3752 8.30753C28.5306 8.34971 28.6826 8.40189 28.8306 8.46451C28.9791 8.52713 29.1223 8.59932 29.2612 8.68108C29.3997 8.76283 29.5325 8.85372 29.6589 8.9533C29.7856 9.05288 29.9046 9.16073 30.017 9.2764C30.1299 9.39425 30.2349 9.51906 30.3317 9.65082C30.4281 9.78302 30.5158 9.92044 30.5943 10.0639C30.6729 10.2074 30.7419 10.3553 30.801 10.5079C30.86 10.6601 30.9091 10.8158 30.9477 10.975C30.9863 11.1341 31.0146 11.2946 31.0319 11.4577C31.0497 11.6203 31.0562 11.7834 31.0523 11.9469C31.0484 12.1104 31.0341 12.2731 31.0089 12.4348C30.9833 12.5966 30.9477 12.7558 30.9017 12.9127C30.7958 13.2819 30.6668 13.6433 30.5153 13.996C30.3638 14.3491 30.1906 14.6913 29.9962 15.0223C29.8012 15.3532 29.5868 15.6706 29.3519 15.9746C29.1171 16.2781 28.8645 16.566 28.5936 16.8378C28.3227 17.1096 28.0358 17.3631 27.7328 17.5984C27.4298 17.8337 27.1133 18.0489 26.7829 18.2442C26.453 18.4394 26.1118 18.6134 25.7602 18.7651C25.4081 18.9173 25.0478 19.0461 24.6797 19.1526C24.5235 19.1987 24.3646 19.2344 24.2035 19.2596C24.042 19.2848 23.8801 19.2991 23.7173 19.3031C23.5541 19.307 23.3913 19.3 23.2294 19.2822C23.0675 19.2648 22.9069 19.2365 22.7484 19.1978C22.59 19.1591 22.435 19.11 22.2831 19.0508C22.1311 18.9913 21.9835 18.9226 21.8407 18.8438C21.6975 18.7651 21.5603 18.6773 21.4288 18.5803C21.2977 18.4838 21.1731 18.3785 21.0554 18.2655C20.94 18.1528 20.8327 18.0333 20.7333 17.9063C20.6339 17.7793 20.5432 17.6462 20.4616 17.5071C20.38 17.3679 20.3079 17.224 20.2458 17.0753C20.1833 16.9265 20.1312 16.7739 20.0891 16.6182C20.047 16.4625 20.0158 16.3047 19.9945 16.1442C19.9736 15.9842 19.9637 15.8237 19.9641 15.6624C19.9645 15.501 19.9758 15.3401 19.998 15.1801C20.0201 15.0205 20.0527 14.8627 20.0956 14.707C20.3031 13.9421 20.6048 13.2163 21.0016 12.5305C21.3984 11.8443 21.8763 11.2211 22.4359 10.661ZM18.4656 20.0506C18.8815 19.1674 19.1962 18.2494 19.4098 17.2966C19.4176 17.2627 19.4388 17.244 19.4736 17.2409C19.5083 17.2379 19.5326 17.2522 19.5461 17.2844C19.7709 17.8432 20.0956 18.3355 20.521 18.7612C20.9452 19.1883 21.4361 19.514 21.9935 19.7388C22.0256 19.7527 22.04 19.7771 22.0369 19.8119C22.0339 19.8466 22.0152 19.8679 21.9814 19.8758C21.0316 20.0893 20.116 20.4037 19.2352 20.8194C19.1818 20.8447 19.1259 20.8607 19.0672 20.8686C19.0086 20.876 18.95 20.8747 18.8919 20.8642C18.8337 20.8538 18.7786 20.8347 18.726 20.8073C18.6735 20.7799 18.6266 20.7451 18.585 20.7029C18.5429 20.6611 18.5081 20.6142 18.4808 20.5616C18.4534 20.5089 18.4343 20.4537 18.4239 20.395C18.4135 20.3367 18.4122 20.278 18.42 20.2193C18.4274 20.1606 18.4439 20.1045 18.4686 20.0506H18.4656ZM21.9202 10.1453C21.3159 10.751 20.7997 11.4242 20.3709 12.1652C19.9424 12.9062 19.616 13.6903 19.3915 14.5169C19.3377 14.7187 19.2978 14.9235 19.2721 15.131C19.273 15.1414 19.273 15.1523 19.2721 15.1632C19.26 15.2675 19.2522 15.3702 19.2478 15.4702C19.1732 16.3521 19.0099 17.2175 18.7573 18.0659C18.5051 18.9143 18.1691 19.7275 17.7493 20.5063L10.6487 27.6242C10.6153 27.6581 10.5849 27.6951 10.5585 27.7351C10.532 27.7751 10.5098 27.8173 10.4916 27.8616C10.4734 27.906 10.4595 27.9516 10.4504 27.9986C10.4408 28.0456 10.436 28.093 10.436 28.1408C10.436 28.1886 10.4408 28.2365 10.4504 28.2834C10.4595 28.3304 10.4734 28.3761 10.4916 28.4204C10.5098 28.4648 10.532 28.5065 10.5585 28.5465C10.5849 28.5865 10.6153 28.6235 10.6487 28.6574C10.6826 28.6913 10.7195 28.7218 10.7594 28.7483C10.7989 28.7748 10.8411 28.7974 10.8853 28.8157C10.9292 28.834 10.9748 28.8479 11.0216 28.8575C11.0685 28.8666 11.1163 28.8714 11.164 28.8714C11.2118 28.8714 11.2591 28.8666 11.306 28.8575C11.3529 28.8479 11.3984 28.834 11.4427 28.8157C11.487 28.7974 11.5287 28.7748 11.5686 28.7483C11.6081 28.7218 11.645 28.6913 11.6789 28.6574L18.7747 21.5426C19.5513 21.1208 20.3622 20.7825 21.2082 20.5285C22.0539 20.2741 22.9168 20.1093 23.7968 20.0336C23.8992 20.0336 24.0017 20.0215 24.1028 20.0093H24.1549C24.3581 19.9823 24.5586 19.9427 24.7561 19.8893C25.1577 19.7797 25.5505 19.6453 25.9347 19.4853C26.3189 19.3257 26.6918 19.1422 27.053 18.9352C27.4137 18.7277 27.7601 18.4981 28.0922 18.2468C28.4238 17.9954 28.7386 17.7236 29.0364 17.4323C29.3337 17.1405 29.6115 16.8313 29.8698 16.5043C30.1281 16.1768 30.3643 15.835 30.5791 15.4776C30.794 15.1205 30.9855 14.7509 31.1535 14.3691C31.321 13.9873 31.4643 13.5968 31.5828 13.1967C31.6427 13.001 31.6891 12.8023 31.7221 12.6005C31.7551 12.3983 31.7738 12.1952 31.779 11.9904C31.7842 11.786 31.7755 11.5821 31.753 11.3785C31.7304 11.175 31.6944 10.9741 31.6444 10.7758C31.5941 10.5775 31.5311 10.3831 31.4547 10.1935C31.3783 10.0039 31.2893 9.81998 31.1878 9.64256C31.0866 9.46514 30.9733 9.2951 30.8487 9.1329C30.7241 8.97113 30.5891 8.81806 30.4441 8.67455C30.3091 8.54366 30.1663 8.4219 30.0161 8.30927C29.8655 8.19707 29.7083 8.09488 29.5443 8.00312C29.3806 7.91137 29.2113 7.83048 29.0372 7.7609C28.8627 7.69089 28.6847 7.63305 28.5028 7.58652C28.321 7.53999 28.1369 7.50564 27.9507 7.48346C27.764 7.46085 27.5769 7.45085 27.3894 7.45259C27.2018 7.45476 27.0152 7.46911 26.8294 7.49564C26.6432 7.52216 26.46 7.56043 26.2794 7.61088C25.455 7.83527 24.6732 8.16228 23.9344 8.59193C23.1955 9.02157 22.524 9.5395 21.9202 10.1453Z" fill="black"/>
<path id="Vector_4" d="M24.0904 10.0293L25.2581 11.2004L24.0904 12.3702L22.93 11.1991L24.0977 10.0293H24.0904ZM22.7677 11.3539L23.9371 12.525L22.7768 13.6965L21.609 12.525L22.7755 11.3539H22.7677ZM28.0576 8.70297L29.2236 9.87406L28.0576 11.0438L26.8894 9.87406L28.0576 8.70297ZM26.7349 10.0293L27.9031 11.1991L26.7349 12.3702L25.5672 11.2004L26.7349 10.0293ZM25.4126 11.3556L26.5804 12.525L25.4126 13.6965L24.2449 12.525L25.4126 11.3556ZM24.0904 12.6802L25.2581 13.8513L24.0904 15.0211L22.93 13.8513L24.0964 12.6802H24.0904ZM22.7768 14.0066L23.9449 15.1764L22.7677 16.3487L21.6012 15.1777L22.7768 14.0066ZM29.3859 10.0293L30.5537 11.1991L29.3859 12.3702L28.2195 11.1991L29.3859 10.0293ZM28.065 11.3539L29.2314 12.525L28.0637 13.6965L26.8972 12.525L28.065 11.3539ZM26.7427 12.6802L27.9091 13.8513L26.7427 15.0211L25.575 13.8513L26.7427 12.6802ZM25.4204 14.0066L26.5882 15.1764L25.4126 16.3487L24.2449 15.1777L25.4126 14.0079L25.4204 14.0066ZM24.0977 15.3312L25.2581 16.5023L24.0904 17.6738L22.93 16.5023L24.0977 15.3299V15.3312ZM28.0637 14.0066L29.2314 15.1777L28.0576 16.3487L26.8894 15.1764L28.0559 14.0066H28.0637ZM26.7427 15.3312L27.9031 16.5023L26.7349 17.672L25.5672 16.5023L26.7349 15.3312H26.7427ZM22.6682 10.9443C22.6162 10.9964 22.5658 11.0486 22.515 11.0978L22.6118 11.1943L21.6933 12.1153L21.5526 12.3228L21.4272 12.5206L21.3351 12.6741L21.3078 12.7263L21.2787 12.7737C21.2509 12.8198 21.2249 12.8677 21.2006 12.9151L21.1914 12.932L21.4423 12.682L22.6101 13.8531L21.4423 15.0242L20.6341 14.2001C20.6341 14.2001 20.6341 14.2001 20.6341 14.2092C20.608 14.2827 20.5837 14.3627 20.5607 14.4319L21.2982 15.1716L20.3662 16.1065C20.3706 16.1509 20.3771 16.1948 20.3862 16.2383C20.3862 16.2831 20.4031 16.3257 20.4122 16.3705L21.4528 15.3264L22.6131 16.5023L21.4467 17.672L20.5038 16.7266C20.5038 16.7319 20.5038 16.7366 20.5038 16.7419C20.5177 16.7862 20.5342 16.8297 20.5529 16.8723C20.5715 16.9215 20.5911 16.9689 20.6128 17.0167C20.6341 17.0641 20.6419 17.0811 20.6571 17.1102L20.697 17.1872C20.7152 17.2237 20.7352 17.2607 20.7565 17.2976L21.2861 17.8273L21.2079 17.9056L21.2848 17.9838L21.3043 18.0038L21.3625 18.0604L21.4406 17.9821L21.952 18.4948L22.0562 18.5531H22.0696C22.1126 18.5748 22.1538 18.5979 22.1968 18.6161L22.2628 18.6453L22.3483 18.6822C22.3483 18.6822 22.3592 18.6822 22.3622 18.6822C22.4082 18.7005 22.4525 18.7175 22.4998 18.7327H22.515L21.5969 17.8116L22.7677 16.6558L23.9354 17.8255L22.9087 18.8557C22.9951 18.8753 23.0824 18.891 23.1705 18.9018L24.0886 17.9808L24.8266 18.7222C24.906 18.6974 24.9794 18.6714 25.0588 18.644L24.2432 17.8255L25.4126 16.6558L26.5804 17.8273L26.3307 18.0791C26.3998 18.0404 26.4688 18.0021 26.5361 17.9621L26.6372 17.9038L26.8009 17.8042C26.856 17.769 26.9124 17.7334 26.9676 17.6951C26.9797 17.689 26.991 17.6812 27.0014 17.672L27.1282 17.5859L28.0467 16.6653L28.1431 16.7619C28.1969 16.7127 28.2486 16.6618 28.2964 16.6084L28.1969 16.5088L29.3217 15.379C29.3603 15.3246 29.3972 15.2707 29.432 15.2177C29.4689 15.1624 29.5053 15.1055 29.5392 15.0489C29.5726 14.992 29.6065 14.9411 29.6399 14.8846C29.6738 14.8276 29.7076 14.7711 29.738 14.7128C29.7688 14.6541 29.7931 14.6189 29.8174 14.5715L29.3586 15.032L28.1904 13.8605L29.3586 12.6894L30.2767 13.6013L30.3609 13.3756L29.5205 12.5346L30.644 11.4078C30.6335 11.3248 30.6197 11.2417 30.6014 11.1604C30.6014 11.1373 30.5923 11.113 30.5858 11.0886C30.5706 11.0238 30.5537 10.9625 30.5372 10.9012L29.5205 9.88362L29.8174 9.59487L29.761 9.53486L29.741 9.5166C29.715 9.49051 29.6907 9.46442 29.6629 9.43963L29.3816 9.72229L28.3419 8.67383C28.3159 8.6647 28.2894 8.65687 28.2625 8.65079L28.1783 8.62948C28.1396 8.61817 28.1001 8.60947 28.0606 8.60339L27.9673 8.58469L27.8722 8.57251L26.7349 9.71316L25.8979 8.8717C25.8229 8.89779 25.7447 8.92562 25.6727 8.9578L26.5804 9.86797L25.4126 11.0395L24.2449 9.86797L24.7037 9.40745C24.6334 9.44441 24.5648 9.48442 24.4971 9.52269C24.4298 9.56096 24.3612 9.60096 24.2939 9.64401L24.0964 9.76969L23.9002 9.90189L22.7724 11.033L22.673 10.9334L22.6682 10.9443Z" fill="black"/>
<path id="Vector_5" d="M15.3678 8.579C15.3682 9.22347 15.2324 9.83749 14.9593 10.4211C14.8877 10.3676 14.8195 10.3102 14.7548 10.2489C14.6902 10.1876 14.629 10.1228 14.5716 10.0541C14.5143 9.98578 14.4614 9.91403 14.4123 9.83967C14.3633 9.76487 14.319 9.68747 14.2791 9.60745C14.2387 9.52787 14.2035 9.44568 14.1731 9.36175C14.1428 9.27783 14.1171 9.19216 14.0967 9.10518C14.0759 9.01821 14.0607 8.93037 14.0503 8.84166C14.0399 8.75294 14.0347 8.6638 14.0347 8.57465C14.0347 8.48507 14.0399 8.39592 14.0503 8.30721C14.0607 8.2185 14.0759 8.13065 14.0967 8.04368C14.1171 7.95671 14.1428 7.87104 14.1731 7.78711C14.2035 7.70318 14.2387 7.62099 14.2791 7.54141C14.319 7.4614 14.3633 7.38399 14.4123 7.30963C14.4614 7.23483 14.5143 7.16308 14.5716 7.09481C14.629 7.0261 14.6902 6.96131 14.7548 6.89999C14.8195 6.83867 14.8877 6.78127 14.9593 6.72778C15.2324 7.31137 15.3682 7.9254 15.3678 8.56987V8.579Z" fill="black"/>
<g id="Clip path group">
<mask id="mask0_380_1411" style="mask-type:luminance" maskUnits="userSpaceOnUse" x="15" y="6" width="3" height="5">
<g id="182f469d64">
<path id="Vector_6" d="M15.2271 6.27515H17.4496V10.9034H15.2271V6.27515Z" fill="white"/>
</g>
</mask>
<g mask="url(#mask0_380_1411)">
<g id="Group">
<path id="Vector_7" d="M16.8938 8.57929C16.8921 9.29725 17.0453 9.98042 17.3527 10.6288C17.0288 10.7941 16.685 10.8762 16.3212 10.8758C15.9575 10.8758 15.6132 10.7941 15.2881 10.6301C15.4396 10.3101 15.5546 9.97694 15.6323 9.63079C15.71 9.28508 15.7487 8.93458 15.7487 8.58016C15.7487 8.22575 15.71 7.87525 15.6323 7.52953C15.5546 7.18338 15.4396 6.85027 15.2881 6.53021C15.6128 6.36497 15.957 6.28234 16.3212 6.28278C16.685 6.28017 17.0297 6.36105 17.3544 6.52543C17.0471 7.17338 16.8938 7.85568 16.8951 8.5732L16.8938 8.57929Z" fill="black"/>
</g>
</g>
</g>
<path id="Vector_8" d="M18.6164 8.579C18.6164 8.75816 18.5956 8.93515 18.5539 9.10953C18.5122 9.28391 18.4515 9.4509 18.3707 9.61093C18.29 9.77096 18.1919 9.91968 18.0764 10.0562C17.9609 10.1932 17.8311 10.315 17.6875 10.4211C17.5533 10.1319 17.4517 9.83141 17.3832 9.52004C17.3146 9.20868 17.2803 8.89341 17.2803 8.57465C17.2803 8.25546 17.3146 7.94018 17.3832 7.62882C17.4517 7.31746 17.5533 7.01697 17.6875 6.72778C17.8311 6.83432 17.9605 6.95609 18.076 7.09263C18.1914 7.22962 18.2896 7.37834 18.3703 7.53793C18.4506 7.69796 18.5118 7.86539 18.5535 8.03933C18.5952 8.21371 18.616 8.3907 18.6164 8.56987V8.579Z" fill="black"/>
<g id="add icon ">
<ellipse id="Ellipse 6" cx="16.0325" cy="5.98455" rx="5.33088" ry="5.34026" fill="black"/>
<path id="Vector_9" d="M16.0324 3.01782V8.95145M18.994 5.98464H13.0708" stroke="white" stroke-width="1.17996" stroke-linecap="round" stroke-linejoin="round"/>
</g>
</g>
</g>
</svg>
