<svg width="26" height="26" viewBox="0 0 26 26" fill="none" xmlns="http://www.w3.org/2000/svg">
<path id="Vector" d="M13 1C16.6733 1 20.2733 1.30934 23.7773 1.904C24.488 2.024 25 2.64534 25 3.36534V4.75734C25 5.1513 24.9224 5.54141 24.7716 5.90539C24.6209 6.26937 24.3999 6.60009 24.1213 6.87867L16.8787 14.1213C16.6001 14.3999 16.3791 14.7306 16.2284 15.0946C16.0776 15.4586 16 15.8487 16 16.2427V20.1453C16.0001 20.7026 15.845 21.2489 15.552 21.723C15.259 22.1971 14.8398 22.5802 14.3413 22.8293L10 25V16.2427C10 15.8487 9.92241 15.4586 9.77165 15.0946C9.62089 14.7306 9.39991 14.3999 9.12133 14.1213L1.87867 6.87867C1.60009 6.60009 1.37911 6.26937 1.22835 5.90539C1.07759 5.54141 0.999997 5.1513 1 4.75734V3.36534C1 2.64534 1.512 2.024 2.22267 1.904C5.78342 1.30114 9.38857 0.998743 13 1Z" stroke="black" stroke-width="2" stroke-linecap="round" stroke-linejoin="round"/>
</svg>
