<svg width="24" height="24" viewBox="0 0 24 24" fill="none" xmlns="http://www.w3.org/2000/svg">
<g id="fire icon ">
<path id="Vector" d="M15.362 5.71401C17.0869 6.48478 18.495 7.82407 19.3512 9.50815C20.2074 11.1922 20.4599 13.1191 20.0663 14.9669C19.6728 16.8147 18.6571 18.4715 17.189 19.6606C15.7209 20.8497 13.8892 21.4989 12 21.5C10.3838 21.5001 8.80318 21.0255 7.45437 20.1352C6.10556 19.2448 5.04798 17.9778 4.41294 16.4916C3.7779 15.0054 3.59337 13.3654 3.88227 11.7753C4.17117 10.1851 6.33714 4.66785 7.45437 3.5C8.22379 4.57546 7.82303 9.49819 8.99999 10.101C9.02061 8.77963 9.33252 7.47908 9.91348 6.2921C10.4944 5.10511 12.9691 1.82692 14 1C14.7867 2.05519 14 5 15.361 5.71401H15.362Z" stroke="url(#paint0_linear_50_1332)" stroke-width="1.5" stroke-linecap="round" stroke-linejoin="round"/>
<path id="Vector_2" d="M12 18C12.9527 18.0016 13.8703 17.6405 14.5664 16.99C15.2625 16.3396 15.685 15.4486 15.748 14.498C15.811 13.5474 15.5098 12.6084 14.9056 11.8718C14.3015 11.1352 13.4396 10.6562 12.495 10.532C11.4624 11.4561 10.7821 12.7096 10.57 14.079C9.7996 13.8902 9.07451 13.5499 8.437 13.078C8.25165 13.6413 8.20256 14.2406 8.29373 14.8265C8.38491 15.4125 8.61377 15.9685 8.96151 16.4489C9.30925 16.9293 9.76597 17.3203 10.2942 17.59C10.8224 17.8596 11.407 18.0001 12 18Z" fill="#F11D87" stroke="url(#paint1_linear_50_1332)" stroke-width="1.5" stroke-linecap="round" stroke-linejoin="round"/>
</g>
<defs>
<linearGradient id="paint0_linear_50_1332" x1="11.9984" y1="2.73401" x2="11.9984" y2="21" gradientUnits="userSpaceOnUse">
<stop stop-color="#F11D87"/>
</linearGradient>
<linearGradient id="paint1_linear_50_1332" x1="12.0027" y1="10.532" x2="12.0027" y2="18" gradientUnits="userSpaceOnUse">
<stop stop-color="#F11D87"/>
</linearGradient>
</defs>
</svg>
