<svg xmlns="http://www.w3.org/2000/svg" width="50" height="50" version="1.0" viewBox="0 0 200 200">
  <path d="M21.6 21.6c-.9.8-1.6 2.5-1.6 3.7C20 28.4 171.6 180 174.7 180c2.8 0 5.3-2.5 5.3-5.3C180 171.6 28.4 20 25.3 20c-1.2 0-2.9.7-3.7 1.6zM57 42.5l4.4 4.5h45.3c35.5 0 45.5.3 45.8 1.3.3.6.4 16.5.3 35.2l-.3 34-4.2-6.1c-3.1-4.6-5.2-6.6-8.3-7.8-5.1-2-10.4-.9-14 2.9l-2.4 2.6 19.2 19.2 19.2 19.2V93.9c0-40.3-.3-53.8-1.2-54.7-.9-.9-14.4-1.2-54.7-1.2H52.6l4.4 4.5zM38 106.1c0 40.3.3 53.8 1.2 54.7.9.9 14.4 1.2 54.7 1.2h53.6l-36-36C91.7 106.2 75.3 90 75 90c-.3.1-6.6 7.6-14 16.7l-13.5 16.6-.3-31-.2-30.9-4.5-4.4-4.5-4.4v53.5z"/>
  <path d="M111.6 65.1c-4.3 3.7-5.4 8.1-3.3 13.2 3 7 13 9.1 18.5 3.9 11.1-10.4-3.8-27.2-15.2-17.1z"/>
</svg>