<?xml version="1.0" encoding="UTF-8" standalone="no"?>
<!DOCTYPE svg PUBLIC "-//W3C//DTD SVG 1.1//EN" "http://www.w3.org/Graphics/SVG/1.1/DTD/svg11.dtd">
<svg xmlns="http://www.w3.org/2000/svg" version="1.1" viewBox="0.00 0.00 350.00 100.00">
<path fill="#000000" d="
  M 116.96 40.20
  C 107.11 45.69 114.14 60.22 124.83 55.68
  A 0.13 0.13 0.0 0 1 125.01 55.80
  L 125.03 59.24
  Q 125.03 59.55 124.74 59.64
  C 111.50 63.49 102.62 46.91 113.27 38.24
  Q 118.05 34.34 124.72 36.10
  A 0.41 0.40 8.1 0 1 125.03 36.50
  L 125.01 39.96
  A 0.15 0.15 0.0 0 1 124.80 40.10
  Q 120.52 38.22 116.96 40.20
  Z"
/>
<path fill="#000000" d="
  M 178.07 56.17
  L 182.85 59.47
  Q 183.50 59.93 182.70 59.94
  L 177.76 60.01
  A 1.72 1.70 -28.0 0 1 176.76 59.71
  L 175.12 58.59
  Q 174.76 58.34 174.38 58.54
  Q 167.28 62.20 161.18 58.05
  C 154.60 53.57 153.90 44.33 159.69 38.94
  C 170.69 28.70 186.67 42.81 177.93 55.39
  A 0.56 0.56 0.0 0 0 178.07 56.17
  Z
  M 160.82 43.99
  L 174.27 53.48
  A 0.46 0.46 0.0 0 0 174.91 53.37
  L 175.12 53.07
  A 8.88 8.55 -54.8 0 0 173.25 40.89
  L 173.02 40.73
  A 8.88 8.55 -54.8 0 0 160.92 43.05
  L 160.71 43.35
  A 0.46 0.46 0.0 0 0 160.82 43.99
  Z
  M 170.93 55.61
  L 159.90 47.80
  A 0.10 0.10 0.0 0 0 159.76 47.83
  L 159.73 47.86
  A 6.76 3.64 35.3 0 0 163.15 54.73
  L 163.31 54.85
  A 6.76 3.64 35.3 0 0 170.93 55.79
  L 170.95 55.75
  A 0.10 0.10 0.0 0 0 170.93 55.61
  Z"
/>
<path fill="#000000" d="
  M 254.70 47.88
  A 12.35 12.35 0.0 0 1 242.35 60.23
  A 12.35 12.35 0.0 0 1 230.00 47.88
  A 12.35 12.35 0.0 0 1 242.35 35.53
  A 12.35 12.35 0.0 0 1 254.70 47.88
  Z
  M 251.01 47.89
  A 8.67 8.67 0.0 0 0 242.34 39.22
  A 8.67 8.67 0.0 0 0 233.67 47.89
  A 8.67 8.67 0.0 0 0 242.34 56.56
  A 8.67 8.67 0.0 0 0 251.01 47.89
  Z"
/>
<path fill="#000000" d="
  M 279.23 40.00
  Q 271.98 37.44 268.05 43.40
  C 265.64 47.05 266.69 52.14 270.22 54.79
  Q 274.20 57.77 279.22 55.73
  A 0.25 0.25 0.0 0 1 279.56 55.96
  L 279.50 59.38
  Q 279.50 59.61 279.26 59.67
  C 269.95 62.01 261.39 54.98 263.39 45.32
  C 264.89 38.10 272.08 34.00 279.26 36.15
  A 0.38 0.36 8.6 0 1 279.53 36.50
  L 279.55 39.77
  A 0.24 0.24 0.0 0 1 279.23 40.00
  Z"
/>
<path fill="#000000" d="
  M 306.07 47.89
  A 12.35 12.35 0.0 0 1 293.72 60.24
  A 12.35 12.35 0.0 0 1 281.37 47.89
  A 12.35 12.35 0.0 0 1 293.72 35.54
  A 12.35 12.35 0.0 0 1 306.07 47.89
  Z
  M 302.40 47.89
  A 8.68 8.68 0.0 0 0 293.72 39.21
  A 8.68 8.68 0.0 0 0 285.04 47.89
  A 8.68 8.68 0.0 0 0 293.72 56.57
  A 8.68 8.68 0.0 0 0 302.40 47.89
  Z"
/>
<path fill="#000000" d="
  M 19.74 50.46
  L 19.76 59.61
  Q 19.76 59.97 19.39 59.98
  L 16.53 60.00
  Q 16.06 60.00 16.06 59.53
  L 16.07 36.31
  Q 16.07 35.68 16.69 35.72
  C 20.39 35.93 25.70 34.95 28.80 36.95
  C 35.05 40.96 31.67 50.14 24.21 49.82
  Q 22.30 49.74 20.47 49.73
  Q 19.74 49.73 19.74 50.46
  Z
  M 19.73 39.78
  L 19.75 45.84
  A 0.32 0.32 0.0 0 0 20.07 46.16
  L 24.88 46.15
  A 3.43 3.19 -0.1 0 0 28.30 42.95
  L 28.30 42.63
  A 3.43 3.19 -0.1 0 0 24.86 39.45
  L 20.05 39.46
  A 0.32 0.32 0.0 0 0 19.73 39.78
  Z"
/>
<path fill="#000000" d="
  M 41.45 54.49
  L 38.07 59.85
  A 0.33 0.33 0.0 0 1 37.79 60.01
  L 34.23 59.98
  A 0.33 0.33 0.0 0 1 33.95 59.48
  L 48.88 35.92
  A 0.33 0.33 0.0 0 1 49.16 35.77
  L 53.14 35.78
  A 0.33 0.33 0.0 0 1 53.47 36.11
  L 53.48 59.65
  A 0.33 0.33 0.0 0 1 53.15 59.98
  L 50.11 59.99
  A 0.33 0.33 0.0 0 1 49.78 59.66
  L 49.76 54.64
  A 0.33 0.33 0.0 0 0 49.43 54.31
  L 41.73 54.34
  A 0.33 0.33 0.0 0 0 41.45 54.49
  Z
  M 44.15 50.27
  A 0.30 0.30 0.0 0 0 44.40 50.73
  L 49.43 50.70
  A 0.30 0.30 0.0 0 0 49.73 50.40
  L 49.83 42.21
  A 0.30 0.30 0.0 0 0 49.27 42.05
  L 44.15 50.27
  Z"
/>
<path fill="#000000" d="
  M 57.55 36.24
  A 0.48 0.48 0.0 0 1 58.03 35.76
  L 63.81 35.75
  A 12.18 11.97 -0.1 0 1 76.01 47.69
  L 76.01 48.01
  A 12.18 11.97 -0.1 0 1 63.85 60.01
  L 58.07 60.02
  A 0.48 0.48 0.0 0 1 57.59 59.54
  L 57.55 36.24
  Z
  M 61.24 39.80
  L 61.26 55.98
  A 0.39 0.39 0.0 0 0 61.65 56.37
  L 63.86 56.37
  A 8.54 8.38 -0.1 0 0 72.39 47.97
  L 72.39 47.77
  A 8.54 8.38 -0.1 0 0 63.84 39.41
  L 61.63 39.41
  A 0.39 0.39 0.0 0 0 61.24 39.80
  Z"
/>
<path fill="#000000" d="
  M 82.72 39.79
  L 82.71 45.69
  A 0.33 0.33 0.0 0 0 83.04 46.02
  L 89.09 46.02
  A 0.33 0.33 0.0 0 1 89.42 46.35
  L 89.39 49.38
  A 0.33 0.33 0.0 0 1 89.06 49.71
  L 83.05 49.71
  A 0.33 0.33 0.0 0 0 82.72 50.04
  L 82.72 56.00
  A 0.33 0.33 0.0 0 0 83.05 56.33
  L 91.03 56.30
  A 0.33 0.33 0.0 0 1 91.36 56.63
  L 91.39 59.67
  A 0.33 0.33 0.0 0 1 91.06 60.00
  L 79.35 60.00
  A 0.33 0.33 0.0 0 1 79.02 59.67
  L 79.03 36.10
  A 0.33 0.33 0.0 0 1 79.36 35.77
  L 91.04 35.77
  A 0.33 0.33 0.0 0 1 91.37 36.10
  L 91.37 39.13
  A 0.33 0.33 0.0 0 1 91.04 39.46
  L 83.05 39.46
  A 0.33 0.33 0.0 0 0 82.72 39.79
  Z"
/>
<path fill="#000000" d="
  M 98.43 56.32
  L 106.36 56.31
  A 0.38 0.38 0.0 0 1 106.74 56.69
  L 106.76 59.61
  A 0.38 0.38 0.0 0 1 106.38 59.99
  L 94.80 60.00
  A 0.38 0.38 0.0 0 1 94.42 59.62
  L 94.43 36.15
  A 0.38 0.38 0.0 0 1 94.81 35.77
  L 97.67 35.76
  A 0.38 0.38 0.0 0 1 98.05 36.14
  L 98.05 55.94
  A 0.38 0.38 0.0 0 0 98.43 56.32
  Z"
/>
<path fill="#000000" d="
  M 131.81 50.04
  L 131.86 59.68
  A 0.32 0.32 0.0 0 1 131.54 60.00
  L 128.52 59.99
  A 0.32 0.32 0.0 0 1 128.20 59.67
  L 128.22 36.14
  A 0.32 0.32 0.0 0 1 128.54 35.82
  L 131.51 35.79
  A 0.32 0.32 0.0 0 1 131.83 36.11
  L 131.82 45.71
  A 0.32 0.32 0.0 0 0 132.14 46.03
  L 141.42 46.03
  A 0.32 0.32 0.0 0 0 141.74 45.71
  L 141.74 36.08
  A 0.32 0.32 0.0 0 1 142.06 35.76
  L 145.04 35.78
  A 0.32 0.32 0.0 0 1 145.36 36.10
  L 145.37 59.67
  A 0.32 0.32 0.0 0 1 145.05 59.99
  L 142.05 60.00
  A 0.32 0.32 0.0 0 1 141.73 59.68
  L 141.74 50.04
  A 0.32 0.32 0.0 0 0 141.42 49.72
  L 132.13 49.72
  A 0.32 0.32 0.0 0 0 131.81 50.04
  Z"
/>
<rect fill="#000000" x="149.21" y="35.81" width="3.62" height="24.18" rx="0.32"/>
<path fill="#000000" d="
  M 194.33 56.35
  Q 194.39 56.35 194.52 56.36
  Q 199.39 56.39 199.41 50.67
  Q 199.44 43.56 199.41 36.11
  Q 199.41 35.76 199.76 35.76
  L 202.72 35.76
  Q 203.08 35.76 203.07 36.12
  Q 203.02 42.96 203.10 51.11
  C 203.21 63.03 185.92 63.23 185.84 51.30
  Q 185.79 43.38 185.85 35.97
  Q 185.85 35.77 186.06 35.77
  L 189.20 35.76
  Q 189.52 35.76 189.52 36.08
  Q 189.43 43.61 189.62 51.72
  Q 189.74 56.32 194.33 56.35
  Z"
/>
<rect fill="#000000" x="207.21" y="35.81" width="3.62" height="24.18" rx="0.32"/>
<path fill="#000000" d="
  M 218.85 39.48
  L 214.43 39.46
  A 0.38 0.38 0.0 0 1 214.05 39.08
  L 214.04 36.15
  A 0.38 0.38 0.0 0 1 214.42 35.77
  L 227.63 35.77
  A 0.38 0.38 0.0 0 1 228.01 36.15
  L 227.98 39.09
  A 0.38 0.38 0.0 0 1 227.60 39.47
  L 223.22 39.46
  A 0.38 0.38 0.0 0 0 222.84 39.84
  L 222.86 59.63
  A 0.38 0.38 0.0 0 1 222.48 60.01
  L 219.58 59.99
  A 0.38 0.38 0.0 0 1 219.20 59.61
  L 219.23 39.86
  A 0.38 0.38 0.0 0 0 218.85 39.48
  Z"
/>
<path fill="#000000" d="
  M 312.77 45.80
  L 312.78 59.80
  Q 312.78 59.97 312.61 59.97
  L 309.46 60.00
  Q 309.14 60.00 309.14 59.68
  L 309.16 36.31
  Q 309.16 35.78 309.69 35.78
  L 312.32 35.76
  Q 312.95 35.76 313.20 36.34
  L 321.25 55.01
  A 0.27 0.27 0.0 0 0 321.74 55.01
  L 329.89 36.34
  Q 330.14 35.76 330.78 35.76
  L 333.37 35.77
  A 0.61 0.60 0.5 0 1 333.97 36.37
  L 333.98 59.76
  A 0.24 0.23 -88.9 0 1 333.74 60.00
  L 330.50 59.98
  Q 330.28 59.97 330.28 59.75
  L 330.28 45.70
  Q 330.29 44.60 329.85 45.61
  L 323.79 59.49
  Q 323.56 60.00 323.00 60.00
  L 320.03 60.00
  A 0.97 0.97 0.0 0 1 319.16 59.42
  L 313.24 45.70
  Q 312.77 44.60 312.77 45.80
  Z"
/>
<circle fill="#000000" cx="258.77" cy="57.74" r="2.44"/>
</svg>
