<svg xmlns="http://www.w3.org/2000/svg" xmlns:xlink="http://www.w3.org/1999/xlink" width="400" zoomAndPan="magnify" viewBox="0 0 300 30.000001" height="40" preserveAspectRatio="xMidYMid meet" version="1.0"><defs><g/></defs><g fill="#000000" fill-opacity="1"><g transform="translate(6.880035, 26.190265)"><g><path d="M 5.140625 -12.40625 L 9.84375 -12.40625 C 10.65625 -12.40625 11.359375 -12.695312 11.953125 -13.28125 C 12.523438 -13.851562 12.8125 -14.546875 12.8125 -15.359375 C 12.8125 -16.191406 12.523438 -16.898438 11.953125 -17.484375 C 11.359375 -18.066406 10.65625 -18.359375 9.84375 -18.359375 L 5.140625 -18.359375 Z M 5.140625 0 L 1.859375 0 L 1.859375 -21.640625 L 9.84375 -21.640625 C 11.570312 -21.640625 13.046875 -21.023438 14.265625 -19.796875 C 15.492188 -18.578125 16.109375 -17.097656 16.109375 -15.359375 C 16.109375 -13.640625 15.492188 -12.171875 14.265625 -10.953125 C 13.046875 -9.734375 11.570312 -9.125 9.84375 -9.125 L 5.140625 -9.125 Z M 5.140625 0 "/></g></g></g><g fill="#000000" fill-opacity="1"><g transform="translate(23.811385, 26.190265)"><g><path d="M 14.359375 -21.640625 L 0.6875 0 L 4.5625 0 L 7.75 -5.046875 L 15.109375 -5.046875 L 15.109375 0 L 18.40625 0 L 18.40625 -21.640625 Z M 15.109375 -16.65625 L 15.109375 -8.328125 L 9.828125 -8.328125 Z M 15.109375 -16.65625 "/></g></g></g><g fill="#000000" fill-opacity="1"><g transform="translate(44.083652, 26.190265)"><g><path d="M 5.015625 -3.265625 L 7.4375 -3.265625 C 9.519531 -3.265625 11.300781 -4.003906 12.78125 -5.484375 C 14.25 -6.960938 14.984375 -8.738281 14.984375 -10.8125 C 14.984375 -12.894531 14.25 -14.675781 12.78125 -16.15625 C 11.300781 -17.632812 9.519531 -18.375 7.4375 -18.375 L 5.015625 -18.375 Z M 1.75 0 L 1.75 -21.640625 L 7.4375 -21.640625 C 10.425781 -21.640625 12.976562 -20.582031 15.09375 -18.46875 C 17.195312 -16.34375 18.25 -13.789062 18.25 -10.8125 C 18.25 -7.832031 17.195312 -5.285156 15.09375 -3.171875 C 12.976562 -1.054688 10.425781 0 7.4375 0 Z M 1.75 0 "/></g></g></g><g fill="#000000" fill-opacity="1"><g transform="translate(63.252357, 26.190265)"><g><path d="M 1.8125 -21.640625 L 1.8125 0 L 12.859375 0 L 12.859375 -3.28125 L 5.09375 -3.28125 L 5.09375 -9.203125 L 11.078125 -9.203125 L 11.078125 -12.484375 L 5.09375 -12.484375 L 5.09375 -18.359375 L 12.859375 -18.359375 L 12.859375 -21.640625 Z M 1.8125 -21.640625 "/></g></g></g><g fill="#000000" fill-opacity="1"><g transform="translate(76.918375, 26.190265)"><g><path d="M 1.8125 -21.640625 L 1.8125 0 L 12.859375 0 L 12.859375 -3.28125 L 5.09375 -3.28125 L 5.09375 -21.640625 Z M 1.8125 -21.640625 "/></g></g></g><g fill="#000000" fill-opacity="1"><g transform="translate(90.584392, 26.190265)"><g><path d="M 11.90625 -3.078125 C 9.757812 -3.078125 7.929688 -3.835938 6.421875 -5.359375 C 4.910156 -6.867188 4.15625 -8.691406 4.15625 -10.828125 C 4.15625 -12.960938 4.910156 -14.785156 6.421875 -16.296875 C 7.929688 -17.816406 9.757812 -18.578125 11.90625 -18.578125 C 13.207031 -18.578125 14.429688 -18.265625 15.578125 -17.640625 L 15.578125 -21.25 C 14.390625 -21.65625 13.164062 -21.859375 11.90625 -21.859375 C 8.851562 -21.859375 6.25 -20.78125 4.09375 -18.625 C 1.9375 -16.46875 0.859375 -13.867188 0.859375 -10.828125 C 0.859375 -7.785156 1.9375 -5.1875 4.09375 -3.03125 C 6.25 -0.863281 8.851562 0.21875 11.90625 0.21875 C 13.164062 0.21875 14.390625 0.00390625 15.578125 -0.421875 L 15.578125 -4 C 14.429688 -3.382812 13.207031 -3.078125 11.90625 -3.078125 Z M 11.90625 -3.078125 "/></g></g></g><g fill="#000000" fill-opacity="1"><g transform="translate(107.062222, 26.190265)"><g><path d="M 13.921875 -21.640625 L 13.921875 -12.46875 L 5.125 -12.46875 L 5.125 -21.609375 L 1.84375 -21.609375 L 1.84375 0 L 5.125 0 L 5.125 -9.1875 L 13.921875 -9.1875 L 13.921875 0 L 17.203125 0 L 17.203125 -21.640625 Z M 13.921875 -21.640625 "/></g></g></g><g fill="#000000" fill-opacity="1"><g transform="translate(125.898348, 26.190265)"><g><path d="M 5.125 -21.609375 L 1.84375 -21.609375 L 1.84375 0 L 5.125 0 Z M 5.125 -21.609375 "/></g></g></g><g fill="#000000" fill-opacity="1"><g transform="translate(132.791826, 26.190265)"><g><path d="M 5.03125 -14.515625 C 5.695312 -15.742188 6.628906 -16.722656 7.828125 -17.453125 C 9.054688 -18.191406 10.394531 -18.5625 11.84375 -18.5625 C 13.976562 -18.5625 15.800781 -17.804688 17.3125 -16.296875 C 18.820312 -14.785156 19.578125 -12.960938 19.578125 -10.828125 C 19.578125 -8.847656 18.914062 -7.125 17.59375 -5.65625 Z M 11.84375 -3.078125 C 9.707031 -3.078125 7.878906 -3.835938 6.359375 -5.359375 C 4.847656 -6.867188 4.09375 -8.691406 4.09375 -10.828125 C 4.09375 -10.910156 4.09375 -11.015625 4.09375 -11.140625 L 14.75 -3.640625 C 13.820312 -3.265625 12.851562 -3.078125 11.84375 -3.078125 Z M 20.3125 -3.75 C 22.019531 -5.800781 22.875 -8.160156 22.875 -10.828125 C 22.875 -13.867188 21.796875 -16.46875 19.640625 -18.625 C 17.484375 -20.78125 14.882812 -21.859375 11.84375 -21.859375 C 8.789062 -21.859375 6.1875 -20.78125 4.03125 -18.625 C 1.875 -16.46875 0.796875 -13.867188 0.796875 -10.828125 C 0.796875 -7.785156 1.875 -5.1875 4.03125 -3.03125 C 6.1875 -0.863281 8.789062 0.21875 11.84375 0.21875 C 13.988281 0.21875 15.960938 -0.359375 17.765625 -1.515625 L 19.90625 -0.015625 L 25.609375 -0.015625 Z M 20.3125 -3.75 "/></g></g></g><g fill="#000000" fill-opacity="1"><g transform="translate(158.415609, 26.190265)"><g><path d="M 9.671875 0.203125 C 7.554688 0.203125 5.742188 -0.550781 4.234375 -2.0625 C 2.734375 -3.5625 1.984375 -5.375 1.984375 -7.5 L 1.984375 -21.65625 L 5.28125 -21.65625 L 5.28125 -7.5 C 5.28125 -6.28125 5.707031 -5.242188 6.5625 -4.390625 C 7.425781 -3.515625 8.460938 -3.078125 9.671875 -3.078125 C 10.890625 -3.078125 11.929688 -3.515625 12.796875 -4.390625 C 13.660156 -5.242188 14.09375 -6.28125 14.09375 -7.5 L 14.09375 -21.65625 L 17.390625 -21.65625 L 17.390625 -7.5 C 17.390625 -5.375 16.632812 -3.5625 15.125 -2.0625 C 13.625 -0.550781 11.804688 0.203125 9.671875 0.203125 Z M 9.671875 0.203125 "/></g></g></g><g fill="#000000" fill-opacity="1"><g transform="translate(177.690136, 26.190265)"><g><path d="M 5.125 -21.609375 L 1.84375 -21.609375 L 1.84375 0 L 5.125 0 Z M 5.125 -21.609375 "/></g></g></g><g fill="#000000" fill-opacity="1"><g transform="translate(184.583614, 26.190265)"><g><path d="M 1.0625 -21.640625 L 1.0625 -18.359375 L 5.640625 -18.359375 L 5.640625 0 L 8.9375 0 L 8.9375 -18.359375 L 13.515625 -18.359375 L 13.515625 -21.640625 Z M 1.0625 -21.640625 "/></g></g></g><g fill="#000000" fill-opacity="1"><g transform="translate(199.232254, 26.190265)"><g><path d="M 11.703125 -18.5625 C 9.566406 -18.5625 7.742188 -17.804688 6.234375 -16.296875 C 4.722656 -14.785156 3.96875 -12.960938 3.96875 -10.828125 C 3.96875 -8.691406 4.722656 -6.867188 6.234375 -5.359375 C 7.742188 -3.835938 9.566406 -3.078125 11.703125 -3.078125 C 13.835938 -3.078125 15.660156 -3.835938 17.171875 -5.359375 C 18.691406 -6.867188 19.453125 -8.691406 19.453125 -10.828125 C 19.453125 -12.960938 18.691406 -14.785156 17.171875 -16.296875 C 15.660156 -17.804688 13.835938 -18.5625 11.703125 -18.5625 Z M 11.703125 0.21875 C 8.660156 0.21875 6.0625 -0.863281 3.90625 -3.03125 C 1.75 -5.1875 0.671875 -7.785156 0.671875 -10.828125 C 0.671875 -13.867188 1.75 -16.46875 3.90625 -18.625 C 6.0625 -20.78125 8.660156 -21.859375 11.703125 -21.859375 C 14.742188 -21.859375 17.34375 -20.78125 19.5 -18.625 C 21.664062 -16.46875 22.75 -13.867188 22.75 -10.828125 C 22.75 -7.785156 21.664062 -5.1875 19.5 -3.03125 C 17.34375 -0.863281 14.742188 0.21875 11.703125 0.21875 Z M 11.703125 0.21875 "/></g></g></g><g fill="#000000" fill-opacity="1"><g transform="translate(222.694266, 26.190265)"><g><path d="M 5.109375 -2.03125 C 5.109375 -2.632812 4.894531 -3.144531 4.46875 -3.5625 C 4.050781 -3.988281 3.539062 -4.203125 2.9375 -4.203125 C 2.332031 -4.203125 1.8125 -3.988281 1.375 -3.5625 C 0.945312 -3.144531 0.734375 -2.632812 0.734375 -2.03125 C 0.734375 -1.425781 0.945312 -0.90625 1.375 -0.46875 C 1.8125 -0.0390625 2.332031 0.171875 2.9375 0.171875 C 3.539062 0.171875 4.050781 -0.0390625 4.46875 -0.46875 C 4.894531 -0.90625 5.109375 -1.425781 5.109375 -2.03125 Z M 5.109375 -2.03125 "/></g></g></g><g fill="#000000" fill-opacity="1"><g transform="translate(228.620238, 26.190265)"><g><path d="M 11.90625 -3.078125 C 9.757812 -3.078125 7.929688 -3.835938 6.421875 -5.359375 C 4.910156 -6.867188 4.15625 -8.691406 4.15625 -10.828125 C 4.15625 -12.960938 4.910156 -14.785156 6.421875 -16.296875 C 7.929688 -17.816406 9.757812 -18.578125 11.90625 -18.578125 C 13.207031 -18.578125 14.429688 -18.265625 15.578125 -17.640625 L 15.578125 -21.25 C 14.390625 -21.65625 13.164062 -21.859375 11.90625 -21.859375 C 8.851562 -21.859375 6.25 -20.78125 4.09375 -18.625 C 1.9375 -16.46875 0.859375 -13.867188 0.859375 -10.828125 C 0.859375 -7.785156 1.9375 -5.1875 4.09375 -3.03125 C 6.25 -0.863281 8.851562 0.21875 11.90625 0.21875 C 13.164062 0.21875 14.390625 0.00390625 15.578125 -0.421875 L 15.578125 -4 C 14.429688 -3.382812 13.207031 -3.078125 11.90625 -3.078125 Z M 11.90625 -3.078125 "/></g></g></g><g fill="#000000" fill-opacity="1"><g transform="translate(245.098069, 26.190265)"><g><path d="M 11.703125 -18.5625 C 9.566406 -18.5625 7.742188 -17.804688 6.234375 -16.296875 C 4.722656 -14.785156 3.96875 -12.960938 3.96875 -10.828125 C 3.96875 -8.691406 4.722656 -6.867188 6.234375 -5.359375 C 7.742188 -3.835938 9.566406 -3.078125 11.703125 -3.078125 C 13.835938 -3.078125 15.660156 -3.835938 17.171875 -5.359375 C 18.691406 -6.867188 19.453125 -8.691406 19.453125 -10.828125 C 19.453125 -12.960938 18.691406 -14.785156 17.171875 -16.296875 C 15.660156 -17.804688 13.835938 -18.5625 11.703125 -18.5625 Z M 11.703125 0.21875 C 8.660156 0.21875 6.0625 -0.863281 3.90625 -3.03125 C 1.75 -5.1875 0.671875 -7.785156 0.671875 -10.828125 C 0.671875 -13.867188 1.75 -16.46875 3.90625 -18.625 C 6.0625 -20.78125 8.660156 -21.859375 11.703125 -21.859375 C 14.742188 -21.859375 17.34375 -20.78125 19.5 -18.625 C 21.664062 -16.46875 22.75 -13.867188 22.75 -10.828125 C 22.75 -7.785156 21.664062 -5.1875 19.5 -3.03125 C 17.34375 -0.863281 14.742188 0.21875 11.703125 0.21875 Z M 11.703125 0.21875 "/></g></g></g><g fill="#000000" fill-opacity="1"><g transform="translate(268.560081, 26.190265)"><g><path d="M 20.78125 -21.640625 L 13.0625 -3.984375 L 5.4375 -21.640625 L 2.015625 -21.640625 L 2.015625 0 L 5.296875 0 L 5.296875 -13.65625 L 11.203125 0 L 14.90625 0 L 20.921875 -13.75 L 20.921875 0 L 24.203125 0 L 24.203125 -21.640625 Z M 20.78125 -21.640625 "/></g></g></g></svg>