<?xml version="1.0" standalone="no"?>
<!DOCTYPE svg PUBLIC "-//W3C//DTD SVG 20010904//EN"
 "http://www.w3.org/TR/2001/REC-SVG-20010904/DTD/svg10.dtd">
<svg version="1.0" xmlns="http://www.w3.org/2000/svg"
 width="500.000000pt" height="200.000000pt" viewBox="0 0 500.000000 200.000000"
 preserveAspectRatio="xMidYMid meet">

<g transform="translate(0.000000,200.000000) scale(0.100000,-0.100000)"
fill="#000000" stroke="none">
<path d="M345 1466 c-46 -21 -102 -83 -119 -134 -23 -67 -23 -597 0 -665 16
-49 84 -120 130 -137 35 -14 4073 -14 4108 0 46 17 114 88 130 137 23 68 23
598 0 666 -16 49 -84 120 -130 137 -16 6 -764 10 -2057 10 -1671 -1 -2037 -3
-2062 -14z m785 -144 c22 -12 44 -35 58 -63 22 -43 23 -51 20 -271 -3 -249 -4
-252 -72 -302 -26 -20 -41 -21 -269 -21 -237 0 -243 0 -275 23 -59 43 -62 57
-62 314 0 215 2 236 20 266 11 18 34 41 52 52 30 18 51 20 263 20 204 0 234
-2 265 -18z m436 -165 c26 -30 31 -75 13 -109 -13 -25 -68 -48 -114 -48 l-35
0 0 -65 c0 -63 -1 -65 -25 -65 l-25 0 0 153 c0 85 3 157 8 161 4 4 40 6 81 4
65 -3 76 -6 97 -31z m304 -127 c0 -153 -1 -160 -20 -160 -16 0 -20 7 -20 35
l0 35 -57 0 c-55 0 -59 -2 -81 -35 -15 -25 -30 -35 -47 -35 -14 0 -25 2 -25 4
0 5 153 247 182 289 12 17 29 27 44 27 l24 0 0 -160z m235 126 c91 -69 87
-189 -8 -260 -20 -15 -47 -21 -97 -24 l-70 -4 0 162 0 163 70 -5 c55 -4 77
-11 105 -32z m265 9 c0 -24 -3 -25 -55 -25 l-55 0 0 -45 0 -45 45 0 c38 0 45
-3 45 -20 0 -17 -7 -20 -45 -20 l-45 0 0 -45 0 -45 55 0 c52 0 55 -1 55 -25 0
-25 -1 -25 -80 -25 l-80 0 0 160 0 160 80 0 c79 0 80 0 80 -25z m90 -110 l0
-135 55 0 c52 0 55 -1 55 -25 0 -25 -1 -25 -80 -25 l-80 0 0 160 0 160 25 0
25 0 0 -135z m348 105 c3 -24 1 -25 -43 -22 -40 4 -49 0 -80 -31 -75 -75 -29
-186 78 -187 43 0 47 -2 47 -25 0 -23 -4 -25 -45 -25 -55 0 -93 18 -128 60
-87 103 -6 265 128 257 35 -2 40 -5 43 -27z m94 -37 l3 -68 63 -3 62 -3 0 71
c0 68 1 70 25 70 l25 0 0 -160 0 -160 -25 0 c-24 0 -25 2 -25 70 l0 71 -62 -3
-63 -3 -3 -67 c-3 -60 -5 -68 -22 -68 -19 0 -20 8 -20 160 0 152 1 160 20 160
17 0 19 -8 22 -67z m278 -93 l0 -160 -25 0 -25 0 0 160 0 160 25 0 25 0 0
-160z m288 133 c67 -49 92 -141 57 -203 -20 -35 -19 -36 22 -65 l38 -25 -46 0
c-25 0 -50 5 -57 12 -9 9 -18 9 -37 0 -99 -45 -225 36 -225 145 0 67 39 127
100 152 37 16 117 7 148 -16z m192 -90 c0 -132 9 -153 66 -153 54 0 64 26 64
157 l0 113 25 0 25 0 0 -110 c0 -160 -27 -210 -115 -210 -89 0 -115 47 -115
205 l0 115 25 0 25 0 0 -117z m280 -43 l0 -160 -25 0 -25 0 0 153 c0 85 3 157
7 160 3 4 15 7 25 7 17 0 18 -12 18 -160z m228 133 c3 -20 -1 -23 -32 -23
l-36 0 0 -135 0 -135 -25 0 -25 0 0 135 0 135 -35 0 c-31 0 -35 3 -35 25 l0
26 93 -3 c87 -3 92 -4 95 -25z m259 10 c50 -23 87 -83 87 -142 0 -93 -67 -161
-158 -161 -83 0 -146 54 -162 138 -7 37 17 110 44 135 53 48 127 60 189 30z"/>
<path d="M750 1000 c0 -88 3 -160 7 -160 4 0 36 17 72 39 36 21 99 57 139 81
l74 42 -137 79 c-75 43 -141 79 -146 79 -5 0 -9 -69 -9 -160z"/>
<path d="M1430 1095 l0 -45 43 0 c47 0 67 13 67 45 0 32 -20 45 -67 45 l-43 0
0 -45z"/>
<path d="M1788 1054 l-37 -59 36 -3 c19 -2 37 -1 40 1 2 3 3 31 1 63 l-3 58
-37 -60z"/>
<path d="M1980 1030 l0 -110 31 0 c65 0 108 43 109 109 0 36 -6 49 -34 77 -26
26 -42 34 -70 34 l-36 0 0 -110z"/>
<path d="M3310 1113 l-32 -26 24 -18 c12 -10 53 -39 91 -65 79 -55 97 -50 97
23 0 38 -5 50 -34 79 -44 44 -99 47 -146 7z"/>
<path d="M3270 1007 c0 -15 13 -38 31 -56 25 -26 38 -31 77 -31 52 0 52 -1
-40 64 -67 47 -68 47 -68 23z"/>
<path d="M4278 1111 c-29 -26 -33 -35 -33 -81 0 -46 4 -55 33 -81 46 -41 111
-41 152 0 33 33 45 69 36 107 -4 15 -20 39 -36 55 -41 41 -106 41 -152 0z"/>
</g>
</svg>
