<svg xmlns="http://www.w3.org/2000/svg" xmlns:xlink="http://www.w3.org/1999/xlink" width="350" zoomAndPan="magnify" viewBox="0 0 262.5 262.500001" height="350" preserveAspectRatio="xMidYMid meet" version="1.0"><defs><g/></defs><g fill="#000000" fill-opacity="1"><g transform="translate(1.149178, 119.771869)"><g><path d="M 4.640625 -11.1875 L 8.875 -11.1875 C 9.613281 -11.1875 10.25 -11.453125 10.78125 -11.984375 C 11.289062 -12.492188 11.546875 -13.117188 11.546875 -13.859375 C 11.546875 -14.609375 11.289062 -15.242188 10.78125 -15.765625 C 10.25 -16.296875 9.613281 -16.5625 8.875 -16.5625 L 4.640625 -16.5625 Z M 4.640625 0 L 1.671875 0 L 1.671875 -19.515625 L 8.875 -19.515625 C 10.4375 -19.515625 11.765625 -18.960938 12.859375 -17.859375 C 13.972656 -16.753906 14.53125 -15.421875 14.53125 -13.859375 C 14.53125 -12.304688 13.972656 -10.976562 12.859375 -9.875 C 11.765625 -8.769531 10.4375 -8.21875 8.875 -8.21875 L 4.640625 -8.21875 Z M 4.640625 0 "/></g></g></g><g fill="#000000" fill-opacity="1"><g transform="translate(16.430434, 119.771869)"><g><path d="M 12.953125 -19.515625 L 0.609375 0 L 4.125 0 L 7 -4.5625 L 13.625 -4.5625 L 13.625 0 L 16.59375 0 L 16.59375 -19.515625 Z M 13.625 -15.03125 L 13.625 -7.515625 L 8.859375 -7.515625 Z M 13.625 -15.03125 "/></g></g></g><g fill="#000000" fill-opacity="1"><g transform="translate(34.727015, 119.771869)"><g><path d="M 4.53125 -2.953125 L 6.71875 -2.953125 C 8.582031 -2.953125 10.1875 -3.617188 11.53125 -4.953125 C 12.851562 -6.273438 13.515625 -7.875 13.515625 -9.75 C 13.515625 -11.632812 12.851562 -13.238281 11.53125 -14.5625 C 10.1875 -15.90625 8.582031 -16.578125 6.71875 -16.578125 L 4.53125 -16.578125 Z M 1.578125 0 L 1.578125 -19.515625 L 6.71875 -19.515625 C 9.40625 -19.515625 11.703125 -18.5625 13.609375 -16.65625 C 15.515625 -14.75 16.46875 -12.445312 16.46875 -9.75 C 16.46875 -7.070312 15.515625 -4.773438 13.609375 -2.859375 C 11.703125 -0.953125 9.40625 0 6.71875 0 Z M 1.578125 0 "/></g></g></g><g fill="#000000" fill-opacity="1"><g transform="translate(52.02758, 119.771869)"><g><path d="M 1.640625 -19.515625 L 1.640625 0 L 11.59375 0 L 11.59375 -2.953125 L 4.59375 -2.953125 L 4.59375 -8.3125 L 10 -8.3125 L 10 -11.265625 L 4.59375 -11.265625 L 4.59375 -16.5625 L 11.59375 -16.5625 L 11.59375 -19.515625 Z M 1.640625 -19.515625 "/></g></g></g><g fill="#000000" fill-opacity="1"><g transform="translate(64.361737, 119.771869)"><g><path d="M 1.640625 -19.515625 L 1.640625 0 L 11.59375 0 L 11.59375 -2.953125 L 4.59375 -2.953125 L 4.59375 -19.515625 Z M 1.640625 -19.515625 "/></g></g></g><g fill="#000000" fill-opacity="1"><g transform="translate(76.695893, 119.771869)"><g><path d="M 10.734375 -2.78125 C 8.804688 -2.78125 7.160156 -3.460938 5.796875 -4.828125 C 4.429688 -6.191406 3.75 -7.835938 3.75 -9.765625 C 3.75 -11.691406 4.429688 -13.335938 5.796875 -14.703125 C 7.160156 -16.078125 8.804688 -16.765625 10.734375 -16.765625 C 11.921875 -16.765625 13.023438 -16.484375 14.046875 -15.921875 L 14.046875 -19.171875 C 12.972656 -19.535156 11.867188 -19.71875 10.734375 -19.71875 C 7.984375 -19.71875 5.640625 -18.75 3.703125 -16.8125 C 1.753906 -14.863281 0.78125 -12.515625 0.78125 -9.765625 C 0.78125 -7.015625 1.753906 -4.671875 3.703125 -2.734375 C 5.640625 -0.785156 7.984375 0.1875 10.734375 0.1875 C 11.867188 0.1875 12.972656 0 14.046875 -0.375 L 14.046875 -3.609375 C 13.023438 -3.054688 11.921875 -2.78125 10.734375 -2.78125 Z M 10.734375 -2.78125 "/></g></g></g><g fill="#000000" fill-opacity="1"><g transform="translate(91.56783, 119.771869)"><g><path d="M 12.5625 -19.515625 L 12.5625 -11.25 L 4.625 -11.25 L 4.625 -19.5 L 1.671875 -19.5 L 1.671875 0 L 4.625 0 L 4.625 -8.296875 L 12.5625 -8.296875 L 12.5625 0 L 15.53125 0 L 15.53125 -19.515625 Z M 12.5625 -19.515625 "/></g></g></g><g fill="#000000" fill-opacity="1"><g transform="translate(108.568228, 119.771869)"><g><path d="M 4.625 -19.5 L 1.671875 -19.5 L 1.671875 0 L 4.625 0 Z M 4.625 -19.5 "/></g></g></g><g fill="#000000" fill-opacity="1"><g transform="translate(114.789882, 119.771869)"><g><path d="M 4.546875 -13.09375 C 5.140625 -14.207031 5.976562 -15.085938 7.0625 -15.734375 C 8.175781 -16.410156 9.382812 -16.75 10.6875 -16.75 C 12.613281 -16.75 14.257812 -16.066406 15.625 -14.703125 C 16.988281 -13.335938 17.671875 -11.691406 17.671875 -9.765625 C 17.671875 -7.984375 17.070312 -6.429688 15.875 -5.109375 Z M 10.6875 -2.78125 C 8.757812 -2.78125 7.113281 -3.460938 5.75 -4.828125 C 4.382812 -6.191406 3.703125 -7.835938 3.703125 -9.765625 C 3.703125 -9.835938 3.703125 -9.929688 3.703125 -10.046875 L 13.296875 -3.28125 C 12.460938 -2.945312 11.59375 -2.78125 10.6875 -2.78125 Z M 18.328125 -3.390625 C 19.867188 -5.242188 20.640625 -7.367188 20.640625 -9.765625 C 20.640625 -12.515625 19.664062 -14.863281 17.71875 -16.8125 C 15.769531 -18.75 13.425781 -19.71875 10.6875 -19.71875 C 7.9375 -19.71875 5.585938 -18.75 3.640625 -16.8125 C 1.691406 -14.863281 0.71875 -12.515625 0.71875 -9.765625 C 0.71875 -7.015625 1.691406 -4.671875 3.640625 -2.734375 C 5.585938 -0.785156 7.9375 0.1875 10.6875 0.1875 C 12.625 0.1875 14.40625 -0.328125 16.03125 -1.359375 L 17.953125 -0.015625 L 23.109375 -0.015625 Z M 18.328125 -3.390625 "/></g></g></g><g fill="#000000" fill-opacity="1"><g transform="translate(137.916431, 119.771869)"><g><path d="M 8.734375 0.171875 C 6.816406 0.171875 5.175781 -0.503906 3.8125 -1.859375 C 2.457031 -3.210938 1.78125 -4.847656 1.78125 -6.765625 L 1.78125 -19.53125 L 4.765625 -19.53125 L 4.765625 -6.765625 C 4.765625 -5.660156 5.148438 -4.722656 5.921875 -3.953125 C 6.703125 -3.171875 7.640625 -2.78125 8.734375 -2.78125 C 9.828125 -2.78125 10.765625 -3.171875 11.546875 -3.953125 C 12.328125 -4.722656 12.71875 -5.660156 12.71875 -6.765625 L 12.71875 -19.53125 L 15.6875 -19.53125 L 15.6875 -6.765625 C 15.6875 -4.847656 15.003906 -3.210938 13.640625 -1.859375 C 12.285156 -0.503906 10.648438 0.171875 8.734375 0.171875 Z M 8.734375 0.171875 "/></g></g></g><g fill="#000000" fill-opacity="1"><g transform="translate(155.31251, 119.771869)"><g><path d="M 4.625 -19.5 L 1.671875 -19.5 L 1.671875 0 L 4.625 0 Z M 4.625 -19.5 "/></g></g></g><g fill="#000000" fill-opacity="1"><g transform="translate(161.534164, 119.771869)"><g><path d="M 0.953125 -19.515625 L 0.953125 -16.5625 L 5.09375 -16.5625 L 5.09375 0 L 8.0625 0 L 8.0625 -16.5625 L 12.203125 -16.5625 L 12.203125 -19.515625 Z M 0.953125 -19.515625 "/></g></g></g><g fill="#000000" fill-opacity="1"><g transform="translate(174.755185, 119.771869)"><g><path d="M 10.5625 -16.75 C 8.632812 -16.75 6.988281 -16.066406 5.625 -14.703125 C 4.257812 -13.335938 3.578125 -11.691406 3.578125 -9.765625 C 3.578125 -7.835938 4.257812 -6.191406 5.625 -4.828125 C 6.988281 -3.460938 8.632812 -2.78125 10.5625 -2.78125 C 12.488281 -2.78125 14.132812 -3.460938 15.5 -4.828125 C 16.863281 -6.191406 17.546875 -7.835938 17.546875 -9.765625 C 17.546875 -11.691406 16.863281 -13.335938 15.5 -14.703125 C 14.132812 -16.066406 12.488281 -16.75 10.5625 -16.75 Z M 10.5625 0.1875 C 7.8125 0.1875 5.460938 -0.785156 3.515625 -2.734375 C 1.566406 -4.671875 0.59375 -7.015625 0.59375 -9.765625 C 0.59375 -12.515625 1.566406 -14.863281 3.515625 -16.8125 C 5.460938 -18.75 7.8125 -19.71875 10.5625 -19.71875 C 13.300781 -19.71875 15.644531 -18.75 17.59375 -16.8125 C 19.539062 -14.863281 20.515625 -12.515625 20.515625 -9.765625 C 20.515625 -7.015625 19.539062 -4.671875 17.59375 -2.734375 C 15.644531 -0.785156 13.300781 0.1875 10.5625 0.1875 Z M 10.5625 0.1875 "/></g></g></g><g fill="#000000" fill-opacity="1"><g transform="translate(195.93064, 119.771869)"><g><path d="M 4.609375 -1.828125 C 4.609375 -2.367188 4.414062 -2.832031 4.03125 -3.21875 C 3.65625 -3.601562 3.191406 -3.796875 2.640625 -3.796875 C 2.097656 -3.796875 1.628906 -3.601562 1.234375 -3.21875 C 0.859375 -2.832031 0.671875 -2.367188 0.671875 -1.828125 C 0.671875 -1.285156 0.859375 -0.816406 1.234375 -0.421875 C 1.628906 -0.0351562 2.097656 0.15625 2.640625 0.15625 C 3.191406 0.15625 3.65625 -0.0351562 4.03125 -0.421875 C 4.414062 -0.816406 4.609375 -1.285156 4.609375 -1.828125 Z M 4.609375 -1.828125 "/></g></g></g><g fill="#000000" fill-opacity="1"><g transform="translate(201.27908, 119.771869)"><g><path d="M 10.734375 -2.78125 C 8.804688 -2.78125 7.160156 -3.460938 5.796875 -4.828125 C 4.429688 -6.191406 3.75 -7.835938 3.75 -9.765625 C 3.75 -11.691406 4.429688 -13.335938 5.796875 -14.703125 C 7.160156 -16.078125 8.804688 -16.765625 10.734375 -16.765625 C 11.921875 -16.765625 13.023438 -16.484375 14.046875 -15.921875 L 14.046875 -19.171875 C 12.972656 -19.535156 11.867188 -19.71875 10.734375 -19.71875 C 7.984375 -19.71875 5.640625 -18.75 3.703125 -16.8125 C 1.753906 -14.863281 0.78125 -12.515625 0.78125 -9.765625 C 0.78125 -7.015625 1.753906 -4.671875 3.703125 -2.734375 C 5.640625 -0.785156 7.984375 0.1875 10.734375 0.1875 C 11.867188 0.1875 12.972656 0 14.046875 -0.375 L 14.046875 -3.609375 C 13.023438 -3.054688 11.921875 -2.78125 10.734375 -2.78125 Z M 10.734375 -2.78125 "/></g></g></g><g fill="#000000" fill-opacity="1"><g transform="translate(216.151005, 119.771869)"><g><path d="M 10.5625 -16.75 C 8.632812 -16.75 6.988281 -16.066406 5.625 -14.703125 C 4.257812 -13.335938 3.578125 -11.691406 3.578125 -9.765625 C 3.578125 -7.835938 4.257812 -6.191406 5.625 -4.828125 C 6.988281 -3.460938 8.632812 -2.78125 10.5625 -2.78125 C 12.488281 -2.78125 14.132812 -3.460938 15.5 -4.828125 C 16.863281 -6.191406 17.546875 -7.835938 17.546875 -9.765625 C 17.546875 -11.691406 16.863281 -13.335938 15.5 -14.703125 C 14.132812 -16.066406 12.488281 -16.75 10.5625 -16.75 Z M 10.5625 0.1875 C 7.8125 0.1875 5.460938 -0.785156 3.515625 -2.734375 C 1.566406 -4.671875 0.59375 -7.015625 0.59375 -9.765625 C 0.59375 -12.515625 1.566406 -14.863281 3.515625 -16.8125 C 5.460938 -18.75 7.8125 -19.71875 10.5625 -19.71875 C 13.300781 -19.71875 15.644531 -18.75 17.59375 -16.8125 C 19.539062 -14.863281 20.515625 -12.515625 20.515625 -9.765625 C 20.515625 -7.015625 19.539062 -4.671875 17.59375 -2.734375 C 15.644531 -0.785156 13.300781 0.1875 10.5625 0.1875 Z M 10.5625 0.1875 "/></g></g></g><g fill="#000000" fill-opacity="1"><g transform="translate(237.32646, 119.771869)"><g><path d="M 18.75 -19.515625 L 11.78125 -3.59375 L 4.90625 -19.515625 L 1.8125 -19.515625 L 1.8125 0 L 4.78125 0 L 4.78125 -12.3125 L 10.109375 0 L 13.453125 0 L 18.875 -12.40625 L 18.875 0 L 21.84375 0 L 21.84375 -19.515625 Z M 18.75 -19.515625 "/></g></g></g></svg>