<svg width="135" height="116" viewBox="0 0 135 116" fill="none" xmlns="http://www.w3.org/2000/svg">
<g id="Review 2 ">
<g id="Clip path group">
<mask id="mask0_122_1570" style="mask-type:luminance" maskUnits="userSpaceOnUse" x="0" y="14" width="128" height="103">
<g id="ecd23acc87">
<path id="Vector" d="M0 14.498H128V116.003H0V14.498Z" fill="white"/>
</g>
</mask>
<g mask="url(#mask0_122_1570)">
<g id="Group">
<path id="Vector_2" d="M105.906 73.3636C105.906 71.7083 107.25 70.3645 108.907 70.3645C110.563 70.3645 111.908 71.7083 111.908 73.3636V82.4465C111.908 88.2441 109.536 93.5139 105.714 97.3328C101.891 101.152 96.6229 103.522 90.8195 103.522H77.2983C75.9409 103.522 74.7179 103.779 73.6371 104.283C72.5504 104.792 71.5611 105.565 70.6965 106.597L67.1794 110.794C65.7577 112.484 64.0771 113.791 62.1744 114.673C60.2659 115.567 58.1841 116.022 55.9815 116.022C53.779 116.022 51.703 115.567 49.7886 114.673C47.886 113.785 46.2053 112.484 44.7895 110.794L41.2666 106.597C40.4019 105.565 39.4126 104.792 38.326 104.283C37.2451 103.779 36.0163 103.522 34.6648 103.522H21.1436C15.3402 103.522 10.0665 101.152 6.24952 97.3328C2.42668 93.5139 0.0546875 88.2441 0.0546875 82.4465V43.7935C0.0546875 37.996 2.42668 32.732 6.24952 28.9131C10.0724 25.0922 15.3402 22.7241 21.1436 22.7241H60.3691C62.0245 22.7241 63.3682 24.0678 63.3682 25.7231C63.3682 27.3765 62.0245 28.7203 60.3691 28.7203H21.1436C16.9975 28.7203 13.2233 30.4165 10.4852 33.1507C7.74906 35.8849 6.05088 39.6571 6.05088 43.7994V82.4523C6.05088 86.5946 7.74906 90.3668 10.4852 93.101C13.2233 95.8352 16.9975 97.5314 21.1436 97.5314H34.6648C36.8673 97.5314 38.9491 97.9872 40.8576 98.881C42.7603 99.7671 44.441 101.068 45.8626 102.76L49.3797 106.957C50.2444 107.987 51.2337 108.76 52.3203 109.271C53.4012 109.775 54.632 110.032 55.9815 110.032C57.337 110.032 58.5619 109.775 59.6427 109.271C60.7294 108.76 61.7187 107.987 62.5834 106.957L66.1005 102.76C67.5221 101.062 69.2028 99.7613 71.1054 98.881C73.0139 97.9872 75.0957 97.5314 77.2983 97.5314H90.8195C94.9656 97.5314 98.7417 95.8352 101.478 93.101C104.214 90.3668 105.912 86.5946 105.912 82.4523V73.3694L105.906 73.3636ZM98.0503 62.5416L76.9322 41.443C73.8533 38.3679 72.3167 34.3211 72.3167 30.2724C72.3167 26.2314 73.8533 22.1788 76.9322 19.1096L76.9556 19.0862C80.0286 16.0287 84.0676 14.498 88.1067 14.498C92.1574 14.498 96.208 16.0346 99.287 19.1096L100.169 19.9918L101.051 19.1096C104.124 16.0346 108.175 14.498 112.226 14.498C116.247 14.498 120.273 16.0151 123.346 19.0492L123.455 19.1641C126.497 22.2275 128.016 26.2567 128.016 30.2724C128.016 34.3211 126.479 38.3679 123.4 41.443L102.282 62.5416C101.112 63.7101 99.2149 63.7101 98.0387 62.5416H98.0503ZM84.1825 40.2083L100.175 56.1852L119.168 37.2092C121.071 35.3104 122.025 32.7924 122.025 30.2802C122.025 27.768 121.077 25.2616 119.174 23.3609L119.168 23.355C117.266 21.4543 114.752 20.5001 112.232 20.5001C109.718 20.5001 107.198 21.4543 105.295 23.355L102.288 26.3522C101.118 27.5206 99.2207 27.5206 98.0445 26.3522L95.0435 23.355C93.1408 21.4543 90.6267 20.5001 88.1067 20.5001C85.5983 20.5001 83.0959 21.4485 81.1932 23.3356L81.1504 23.3784C79.2672 25.2791 78.3188 27.7797 78.3188 30.2802C78.3188 32.7982 79.273 35.3104 81.1757 37.2092L84.1748 40.2083H84.1825ZM24.0959 83.1301C22.4406 83.1301 21.0969 81.7863 21.0969 80.1329C21.0969 78.4776 22.4406 77.1339 24.0959 77.1339H87.8613C89.5166 77.1339 90.8604 78.4776 90.8604 80.1329C90.8604 81.7863 89.5166 83.1301 87.8613 83.1301H24.0959ZM24.0959 66.1094C22.4406 66.1094 21.0969 64.7656 21.0969 63.1103C21.0969 61.4569 22.4406 60.1132 24.0959 60.1132H81.1874C82.8427 60.1132 84.1884 61.4569 84.1884 63.1103C84.1884 64.7656 82.8427 66.1094 81.1874 66.1094H24.0959ZM24.0959 49.0867C22.4406 49.0867 21.0969 47.7449 21.0969 46.0896C21.0969 44.4342 22.4406 43.0924 24.0959 43.0924H64.8522C66.5075 43.0924 67.8512 44.4342 67.8512 46.0896C67.8512 47.7449 66.5075 49.0867 64.8522 49.0867H24.0959Z" fill="#9CA3AF"/>
</g>
</g>
</g>
<g id="Vector_3">
<path d="M94.4587 17.5656C98.6222 13.9212 105.378 13.9212 109.541 17.5656C113.708 21.21 113.708 27.1194 109.541 30.7638C108.82 31.4003 108.012 31.9229 107.159 32.3354C104.51 33.6189 102.004 35.8874 102.004 38.8314V41.498M134 33.498C134 37.7003 133.172 41.8615 131.564 45.7439C129.956 49.6263 127.599 53.154 124.627 56.1255C121.656 59.0969 118.128 61.454 114.246 63.0622C110.363 64.6703 106.202 65.498 102 65.498C97.7977 65.498 93.6365 64.6703 89.7541 63.0622C85.8717 61.454 82.3441 59.0969 79.3726 56.1255C76.4011 53.154 74.044 49.6263 72.4359 45.7439C70.8277 41.8615 70 37.7003 70 33.498C70 25.0111 73.3714 16.8718 79.3726 10.8706C85.3737 4.86947 93.5131 1.49805 102 1.49805C110.487 1.49805 118.626 4.86947 124.627 10.8706C130.629 16.8718 134 25.0111 134 33.498ZM102 52.1647H102.028V52.1932H102V52.1647Z" fill="#9CA3AF"/>
<path d="M94.4587 17.5656C98.6222 13.9212 105.378 13.9212 109.541 17.5656C113.708 21.21 113.708 27.1194 109.541 30.7638C108.82 31.4003 108.012 31.9229 107.159 32.3354C104.51 33.6189 102.004 35.8874 102.004 38.8314V41.498M134 33.498C134 37.7003 133.172 41.8615 131.564 45.7439C129.956 49.6263 127.599 53.154 124.627 56.1255C121.656 59.0969 118.128 61.454 114.246 63.0622C110.363 64.6703 106.202 65.498 102 65.498C97.7977 65.498 93.6365 64.6703 89.7541 63.0622C85.8717 61.454 82.3441 59.0969 79.3726 56.1255C76.4011 53.154 74.044 49.6263 72.4359 45.7439C70.8277 41.8615 70 37.7003 70 33.498C70 25.0111 73.3714 16.8718 79.3726 10.8706C85.3737 4.86947 93.5131 1.49805 102 1.49805C110.487 1.49805 118.626 4.86947 124.627 10.8706C130.629 16.8718 134 25.0111 134 33.498ZM102 52.1647H102.028V52.1932H102V52.1647Z" stroke="white" stroke-width="2" stroke-linecap="round" stroke-linejoin="round"/>
</g>
</g>
</svg>
