<svg width="130" height="115" viewBox="0 0 130 115" fill="none" xmlns="http://www.w3.org/2000/svg">
<g id="Tienda icon ">
<g id="Vector">
<path d="M105.831 10.4146C108.271 8.27917 112.229 8.27917 114.669 10.4146C117.11 12.55 117.11 16.0125 114.669 18.1479C114.246 18.5208 113.773 18.8271 113.273 19.0688C111.721 19.8208 110.252 21.15 110.252 22.875V24.4375M129 19.75C129 22.2123 128.515 24.6505 127.573 26.9253C126.63 29.2002 125.249 31.2672 123.508 33.0083C121.767 34.7494 119.7 36.1305 117.425 37.0727C115.15 38.015 112.712 38.5 110.25 38.5C107.788 38.5 105.35 38.015 103.075 37.0727C100.8 36.1305 98.7328 34.7494 96.9917 33.0083C95.2506 31.2672 93.8695 29.2002 92.9273 26.9253C91.985 24.6505 91.5 22.2123 91.5 19.75C91.5 14.7772 93.4754 10.0081 96.9917 6.49175C100.508 2.97544 105.277 1 110.25 1C115.223 1 119.992 2.97544 123.508 6.49175C127.025 10.0081 129 14.7772 129 19.75ZM110.25 30.6875H110.267V30.7042H110.25V30.6875Z" fill="#9CA3AF"/>
<path d="M105.831 10.4146C108.271 8.27917 112.229 8.27917 114.669 10.4146C117.11 12.55 117.11 16.0125 114.669 18.1479C114.246 18.5208 113.773 18.8271 113.273 19.0688C111.721 19.8208 110.252 21.15 110.252 22.875V24.4375M129 19.75C129 22.2123 128.515 24.6505 127.573 26.9253C126.63 29.2002 125.249 31.2672 123.508 33.0083C121.767 34.7493 119.7 36.1305 117.425 37.0727C115.15 38.015 112.712 38.5 110.25 38.5C107.788 38.5 105.35 38.015 103.075 37.0727C100.8 36.1305 98.7328 34.7493 96.9917 33.0083C95.2506 31.2672 93.8695 29.2002 92.9273 26.9253C91.985 24.6505 91.5 22.2123 91.5 19.75C91.5 14.7772 93.4754 10.0081 96.9917 6.49175C100.508 2.97544 105.277 1 110.25 1C115.223 1 119.992 2.97544 123.508 6.49175C127.025 10.0081 129 14.7772 129 19.75ZM110.25 30.6875H110.267V30.7042H110.25V30.6875Z" stroke="white" stroke-width="2" stroke-linecap="round" stroke-linejoin="round"/>
</g>
<g id="Tienda Icon ">
<g id="Clip path group">
<mask id="mask0_122_1312" style="mask-type:luminance" maskUnits="userSpaceOnUse" x="0" y="15" width="101" height="100">
<g id="7f0a3a0c3d">
<path id="Vector_2" d="M0.5 15H100.5V114.608H0.5V15Z" fill="white"/>
</g>
</mask>
<g mask="url(#mask0_122_1312)">
<g id="Group">
<path id="Vector_3" d="M100.203 49.4488C100.113 49.2197 100.832 50.5853 88.6369 28.2043V16.9931C88.6369 15.9166 87.7634 15.0415 86.6853 15.0415H14.5012C13.4247 15.0415 12.5512 15.9166 12.5512 16.9931V28.2043C0.337215 50.613 1.01235 49.2873 0.91085 49.6733C0.890857 49.7518 0.873941 49.8256 0.860099 49.9317C0.832417 50.1532 0.849334 49.4949 0.84472 57.8518C0.84472 61.5059 3.32996 64.5894 6.69794 65.5029V112.615C6.69794 113.693 7.57147 114.566 8.64799 114.566C11.3085 114.566 89.8903 114.566 92.5386 114.566C93.6151 114.566 94.4886 113.693 94.4886 112.615V65.5029C97.8566 64.5894 100.342 61.5059 100.342 57.8518V50.1685C100.342 49.9179 100.29 49.6672 100.203 49.4488ZM16.4528 18.9447H84.7353V26.751C83.385 26.751 17.414 26.751 16.4528 26.751V18.9447ZM76.443 52.1201H84.4908V57.8518C84.4908 60.071 82.6853 61.8765 80.4676 61.8765C78.2485 61.8765 76.443 60.071 76.443 57.8518V52.1201ZM71.8893 48.2169H64.229L61.6623 30.6542H66.7542L71.8893 48.2169ZM60.5919 52.1201V57.8518C60.5919 60.071 58.7864 61.8765 56.5688 61.8765C54.3496 61.8765 52.5441 60.071 52.5441 57.8518V52.1201H60.5919ZM48.6425 30.6542V48.2169H40.9192L43.4859 30.6542H48.6425ZM28.6452 52.1201H36.693V57.8518C36.693 60.071 34.8875 61.8765 32.6699 61.8765C30.4507 61.8765 28.6452 60.071 28.6452 57.8518V52.1201ZM25.2326 48.2169H17.7308L25.4326 30.6542H30.3677L25.2326 48.2169ZM4.74636 57.8518V52.1201C7.58838 52.1201 10.0013 52.1201 12.7942 52.1201V57.8518C12.7942 60.071 10.9887 61.8765 8.77102 61.8765C6.55184 61.8765 4.74636 60.071 4.74636 57.8518ZM35.961 110.665H18.4029V82.3674C18.4029 77.5261 22.3414 73.586 27.1827 73.586C32.024 73.586 35.961 77.5261 35.961 82.3674V110.665ZM55.4707 110.665H47.6674V102.858H55.4707V110.665ZM82.7837 110.665H74.9804V102.858H82.7837V110.665ZM90.587 110.665H86.6853V89.1972C86.6853 88.1207 85.8118 87.2456 84.7353 87.2456C83.6572 87.2456 82.7837 88.1207 82.7837 89.1972V98.9551H73.0288C71.9523 98.9551 71.0788 99.8287 71.0788 100.907V110.665H67.1756V95.052H73.0288C74.1069 95.052 74.9804 94.1784 74.9804 93.1004C74.9804 92.0238 74.1069 91.1488 73.0288 91.1488H57.4223C56.3442 91.1488 55.4707 92.0238 55.4707 93.1004C55.4707 94.1784 56.3442 95.052 57.4223 95.052H63.274V110.665H59.3723V100.907C59.3723 99.8287 58.4988 98.9551 57.4223 98.9551H47.6674V89.1972C47.6674 88.1207 46.7939 87.2456 45.7158 87.2456C44.6393 87.2456 43.7658 88.1207 43.7658 89.1972V110.665H39.8626V82.3674C39.8626 75.3731 34.174 69.6829 27.1827 69.6829C20.1899 69.6829 14.5012 75.3731 14.5012 82.3674V110.665H10.5996V65.5644C12.2359 65.1768 13.6754 64.2802 14.7457 63.053C17.9123 66.6886 23.5271 66.6901 26.6952 63.053C29.8617 66.6886 35.4766 66.6901 38.6446 63.053C41.8111 66.6886 47.426 66.6901 50.594 63.053C53.7606 66.6886 59.3754 66.6901 62.5435 63.053C65.71 66.6886 71.3249 66.6901 74.4929 63.053C77.6594 66.6886 83.2743 66.6901 86.4424 63.053C87.5112 64.2802 88.9522 65.1768 90.587 65.5644V110.665ZM87.7157 48.2169L80.014 30.6542H85.5273L95.1053 48.2169C92.5555 48.2169 90.2763 48.2169 87.7157 48.2169Z" fill="#9CA3AF"/>
</g>
</g>
</g>
<path id="Vector_4" d="M58.0581 69.6829H42.45C41.3735 69.6829 40.5 70.5564 40.5 71.6344V81.3924C40.5 82.4689 41.3735 83.344 42.45 83.344H58.0581C59.1347 83.344 60.0082 82.4689 60.0082 81.3924V71.6344C60.0082 70.5564 59.1347 69.6829 58.0581 69.6829ZM56.1065 79.4408H44.4016V73.586H56.1065V79.4408Z" fill="#9CA3AF"/>
<path id="Vector_5" d="M58.0597 69.6829H42.4516C41.3735 69.6829 40.5 70.5564 40.5 71.6344V81.3924C40.5 82.4689 41.3735 83.344 42.4516 83.344H58.0597C59.1362 83.344 60.0097 82.4689 60.0097 81.3924V71.6344C60.0097 70.5564 59.1362 69.6829 58.0597 69.6829ZM56.1081 79.4408H44.4032V73.586H56.1081V79.4408Z" fill="#9CA3AF"/>
</g>
</g>
</svg>
