<svg version="1.0" xmlns="http://www.w3.org/2000/svg" width="80" height="40" viewBox="0 0 2472 1236">
  <path d="M1452.6 68.9c-.8 1.2-13.2-10.7 300.4 286 163.9 155.1 266.6 252.9 266.8 254.2.3 1.6-1.1 3.4-4.9 6.8-2.9 2.5-17.5 16.5-32.3 31.1-35.6 34.9-31.7 31.2-155.1 147.6-127.6 120.3-204.8 193.5-282.5 267.9-31.6 30.3-65.5 62.1-75.2 70.8-9.8 8.7-17.8 16.4-17.8 17.2 0 1.3 23 1.5 181.8 1.5 140.6-.1 182.2-.3 183.8-1.3 1.2-.7 129.6-122 285.5-269.5 247.4-234.3 283.4-268.7 283.4-271.2s-35.9-37-281.8-270.2c-155-147-283.7-268.3-285.9-269.6l-4.1-2.2h-180.8c-107.3 0-181 .4-181.3.9z"/>
  <path d="M1150.8 108c-5.4 1.6-12.2 7.6-47.3 41.7-69.3 67.2-81 78.3-122.3 116.1-8 7.3-10.2 9.9-10.2 12 0 2.8 7.4 10.5 31.1 32.2 21.2 19.4 161.7 152.8 206.9 196.3 11.6 11.2 21.7 20.1 25 22 3 1.7 10.7 8.1 17 14.2 21.4 20.5 30.4 29 49.8 46.4 23.8 21.4 23.7 21.1 10.2 32.1-3 2.5-15.4 14-27.5 25.5-31.2 30-33.8 32.3-45.4 41-5.7 4.3-22.6 19.5-37.5 33.9-37.3 36-76.9 73.5-145.6 138.1-62.3 58.4-70.3 66-143.5 136-77 73.6-101.5 96.8-145.3 136.9-11 10.1-17.2 16.4-17 17.5.3 1.5 15.3 1.6 179.8 1.9 98.7.1 181 0 182.9-.3 2.7-.5 7.7-4.9 25-21.8 41.9-41.1 72.7-69.7 104.6-97.3 24.6-21.3 31.6-27.8 80.1-74.4 45.4-43.6 62.6-59.9 132.4-125.5 50.5-47.5 99.6-94 172-162.9 8-7.6 25-23.5 37.7-35.5 19-17.6 23.3-22.1 23.3-24.2 0-2.3-41.5-41.9-262.2-250.5-144.2-136.4-263.2-248.7-264.3-249.6-2.8-2.2-6.3-2.9-9.7-1.8z"/>
  <path d="M800.5 440c-2.4.9-25.5 22.6-85.5 80-51.2 48.9-68.5 65.4-111.5 105.5-49.9 46.7-76.4 71.7-245 232-88 83.6-167 158.6-175.5 166.5-8.5 8-23.6 22.4-33.5 32-9.9 9.7-29.7 28.4-44 41.6-25.4 23.5-53.5 51.6-53.5 53.5 0 .5 68.7.9 179 .9 158.5 0 179.5-.2 182.7-1.5 2.4-1 16.1-13.9 39.8-37.3 40.2-39.8 58.5-57.3 98-93.7 14.9-13.7 43.4-40.9 63.5-60.5s46-44.4 57.5-55c34-31.4 67.8-63.3 102.5-96.5 17.9-17.1 45.3-43.2 61-58 47.2-44.6 87.3-82.8 110-105 11.8-11.6 25-23.9 29.3-27.4 4.3-3.5 7.7-6.6 7.5-7.1-2-5-50.5-51.9-136.2-131.5-22.4-20.9-41.6-38.3-42.5-38.6-.9-.4-2.5-.3-3.6.1z"/>
</svg>